<?xml version="1.0" encoding="utf-8"?>
<!-- Generator: Adobe Illustrator 24.2.3, SVG Export Plug-In . SVG Version: 6.00 Build 0)  -->
<svg version="1.1" id="Layer_1" xmlns="http://www.w3.org/2000/svg" xmlns:xlink="http://www.w3.org/1999/xlink" x="0px" y="0px"
	 viewBox="0 0 104.5 100.1" style="enable-background:new 0 0 104.5 100.1;" xml:space="preserve">
<style type="text/css">
	.st0{fill:#D6BA31;}
	.st1{fill:#FFD93D;}
	.st2{fill:#EBEBEB;}
	.st3{fill:#FFFFFF;}
</style>
<path class="st0" d="M52.3,9.7h36.6l-6.6,74.6l-30,8.3l-30-8.3L15.7,9.7H52.3z"/>
<path class="st1" d="M82.2,15.6l-5.7,63.9l-24.3,6.7V15.6H82.2z"/>
<path class="st2" d="M42.2,64.3l-14.2-4l-0.1,8.5l21.6,6.1l-0.2-49.3h-7C42.3,25.5,42.2,64.3,42.2,64.3z"/>
<path class="st3" d="M55.4,25.5l23.5,0L77.8,34l-15.2,0.1l0,13.2l14.5-1.6l-1.7,23.8l-20,5.2v-9.4l14.5-2.9l0.2-7.5l-14.7,2.5
	L55.4,25.5L55.4,25.5z"/>
</svg>
