<svg xmlns="http://www.w3.org/2000/svg" width="114.387" height="93.589" viewBox="0 0 114.387 93.589">
  <g id="Group_4425" data-name="Group 4425" transform="translate(-6 -966.343)">
    <path id="Path_308" data-name="Path 308" d="M58.4,966.355a2.6,2.6,0,0,0-.812.162l-25.266,10.4a2.6,2.6,0,0,0-1.625,2.438v27.057l-23.072,9.507A2.6,2.6,0,0,0,6,1018.356v31.2a2.6,2.6,0,0,0,1.95,2.478l29.287,7.8a2.6,2.6,0,0,0,1.747-.122l25.307-11.7a2.6,2.6,0,0,0,1.5-2.356v-5.728l26.038,6.906a2.6,2.6,0,0,0,1.747-.122l25.307-11.7a2.6,2.6,0,0,0,1.5-2.356v-31.2a2.6,2.6,0,0,0-2.031-2.56L90.49,992.721V975.455a2.6,2.6,0,0,0-2.031-2.56l-29.287-6.5A2.6,2.6,0,0,0,58.4,966.355Zm.447,5.281,21,4.672L62.3,984.393l-20.879-5.566Zm26.444,7.881v13.894l-20.8,8.572V989.146ZM35.9,982.687l23.4,6.256v21.979l-23.4-5.2Zm52.847,14.95,20.96,4.672-17.426,8.085-20.96-5.566,17.426-7.191Zm26.444,7.841v25.513l-19.5,9.019v-25.473l19.5-9.06Zm-50.694,2.885,26,6.906v25.838l-24.7-6.541v-19.419a2.6,2.6,0,0,0-1.3-3.047Zm-30.343,2.275,21,4.672-17.467,8.085-20.96-5.566Zm26.444,7.881v25.473l-20.8,9.629v-25.473l20.8-9.628ZM11.2,1021.728l23.4,6.216v25.838l-23.4-6.216v-25.838Z" transform="translate(0 0)" fill="#fff"/>
  </g>
</svg>
