<svg xmlns="http://www.w3.org/2000/svg" width="40.381" height="33.039" viewBox="0 0 40.381 33.039">
  <g id="Group_4429" data-name="Group 4429" transform="translate(-6 -966.343)">
    <path id="Path_308" data-name="Path 308" d="M24.5,966.347a.919.919,0,0,0-.287.057l-8.919,3.672a.918.918,0,0,0-.574.86v9.552l-8.145,3.356A.918.918,0,0,0,6,984.7v11.015a.918.918,0,0,0,.688.875l10.339,2.754a.919.919,0,0,0,.617-.043l8.934-4.13a.918.918,0,0,0,.531-.832V992.32l9.192,2.438a.917.917,0,0,0,.617-.043l8.934-4.13a.918.918,0,0,0,.531-.832V978.739a.918.918,0,0,0-.717-.9l-9.837-2.18v-6.1a.918.918,0,0,0-.717-.9l-10.339-2.295A.932.932,0,0,0,24.5,966.347Zm.158,1.865,7.414,1.649-6.195,2.854L18.5,970.75Zm9.335,2.782v4.9l-7.342,3.026v-4.532Zm-17.437,1.119,8.26,2.209v7.759l-8.26-1.836ZM35.21,977.39l7.4,1.649-6.152,2.854-7.4-1.965,6.152-2.538Zm9.335,2.768v9.007l-6.883,3.184v-8.992Zm-17.9,1.018,9.177,2.438v9.121l-8.719-2.309v-6.855a.918.918,0,0,0-.459-1.076Zm-10.712.8,7.414,1.649-6.166,2.854-7.4-1.965Zm9.335,2.782v8.992l-7.342,3.4v-8.992l7.342-3.4ZM7.835,985.9l8.26,2.194v9.121l-8.26-2.194V985.9Z" transform="translate(0 0)" fill="#fff"/>
  </g>
</svg>
