<svg xmlns="http://www.w3.org/2000/svg" width="118.259" height="73.684" viewBox="0 0 118.259 73.684">
  <path id="Path_310" data-name="Path 310" d="M119.622,60.727l-20.91-36.22a8.4,8.4,0,0,0-14.438,0L74.815,40.812A28.244,28.244,0,0,0,60.75,37.078a30.281,30.281,0,0,0-4.73.373v-6.6a9.721,9.721,0,0,0-9.708-9.708h-34.1A9.721,9.721,0,0,0,2.5,30.855V65.083a9.721,9.721,0,0,0,9.708,9.708H33.865a28.55,28.55,0,0,0,54.516-1.618h24.146a8.2,8.2,0,0,0,7.219-4.107A8.637,8.637,0,0,0,119.622,60.727ZM12.208,68.444a3.347,3.347,0,0,1-3.361-3.361V30.855a3.347,3.347,0,0,1,3.361-3.361H46.436A3.347,3.347,0,0,1,49.8,30.855v8.464A28.444,28.444,0,0,0,32.372,65.581a21.1,21.1,0,0,0,.124,2.863ZM60.874,87.86a22.279,22.279,0,0,1,0-44.559,23.132,23.132,0,0,1,10.953,2.863L63.488,60.6a8.32,8.32,0,0,0,0,8.339,8.2,8.2,0,0,0,7.219,4.107H81.785A22.2,22.2,0,0,1,60.874,87.86Zm53.271-22.03a2.09,2.09,0,0,1-1.743,1H70.583a2.09,2.09,0,0,1-1.743-1,2.137,2.137,0,0,1,0-1.991l20.91-36.22a2.023,2.023,0,0,1,3.485,0l20.91,36.22A1.792,1.792,0,0,1,114.146,65.83Z" transform="translate(-2.5 -20.4)" fill="#fff"/>
</svg>
