<svg xmlns="http://www.w3.org/2000/svg" width="32.393" height="33.584" viewBox="0 0 32.393 33.584">
  <g id="Group_4428" data-name="Group 4428" transform="translate(-6.809 -5.095)">
    <path id="Path_315" data-name="Path 315" d="M26.388,32.106a1.735,1.735,0,0,0,.51-1.228V6.832a1.74,1.74,0,0,0-1.737-1.737H8.546A1.739,1.739,0,0,0,6.809,6.832V30.878a1.74,1.74,0,0,0,1.737,1.737H25.161A1.736,1.736,0,0,0,26.388,32.106Zm-1.421-1.421H8.739V7.025H24.968Z" transform="translate(0)" fill="#fff"/>
    <path id="Path_316" data-name="Path 316" d="M49.925,20.777a1.68,1.68,0,0,0-.955-.863L38.628,16.24v1.984l9.54,3.389L40.5,43.207l-9.289-3.3H25.622l14.424,5.124a1.684,1.684,0,0,0,2.149-1.022l7.8-21.947A1.685,1.685,0,0,0,49.925,20.777Z" transform="translate(-10.887 -6.45)" fill="#fff"/>
    <path id="Path_317" data-name="Path 317" d="M27.086,30.207c-.026,0-.051,0-.076,0a2.041,2.041,0,1,0-3.929,0c-.026,0-.05,0-.076,0a2.041,2.041,0,1,0,1.528,3.39v1.274c0,.61-.888,1.29-.888,1.29h2.988s-.888-.68-.888-1.29V33.783a2.04,2.04,0,1,0,1.341-3.576Z" transform="translate(-8.192 -13.038)" fill="#fff"/>
  </g>
</svg>
