<svg xmlns="http://www.w3.org/2000/svg" width="97.382" height="100.964" viewBox="0 0 97.382 100.964">
  <g id="Group_4426" data-name="Group 4426" transform="translate(-6.809 -5.095)">
    <path id="Path_315" data-name="Path 315" d="M65.671,86.3A5.216,5.216,0,0,0,67.2,82.607V10.318A5.23,5.23,0,0,0,61.98,5.095H12.032a5.228,5.228,0,0,0-5.223,5.223V82.607a5.23,5.23,0,0,0,5.223,5.223H61.98A5.219,5.219,0,0,0,65.671,86.3ZM61.4,82.026H12.612V10.9H61.4Z" fill="#fff"/>
    <path id="Path_316" data-name="Path 316" d="M98.683,29.879a5.051,5.051,0,0,0-2.871-2.594L64.722,16.24v5.965L93.4,32.394,70.338,97.312l-27.925-9.92H25.622l43.362,15.4a5.063,5.063,0,0,0,6.459-3.071L98.886,33.746A5.066,5.066,0,0,0,98.683,29.879Z" transform="translate(5.015 2.971)" fill="#fff"/>
    <path id="Path_317" data-name="Path 317" d="M39.368,35.388c-.077,0-.152.009-.228.011a6.135,6.135,0,1,0-11.813,0c-.077,0-.151-.011-.228-.011A6.135,6.135,0,1,0,31.692,45.58v3.831c0,1.834-2.67,3.878-2.67,3.878h8.984s-2.67-2.044-2.67-3.878V46.138a6.132,6.132,0,1,0,4.033-10.75Z" transform="translate(3.773 6.005)" fill="#fff"/>
  </g>
</svg>
