<svg xmlns="http://www.w3.org/2000/svg" width="36.515" height="36.514" viewBox="0 0 36.515 36.514">
  <path id="hand-spock-regular" d="M35.732,8.285A5.248,5.248,0,0,0,31,5.788a5.217,5.217,0,0,0-5.045-3.857,5.28,5.28,0,0,0-5.152,4.2l-.331,1.616L19.5,3.954A5.259,5.259,0,0,0,9.174,5.8a5.255,5.255,0,0,0-4.625,6.734L6.286,18.4a5.26,5.26,0,0,0-4.63,8.989l6.516,6.132a10.994,10.994,0,0,0,7.562,3H23.4a9.079,9.079,0,0,0,8.862-7l4.109-17.256A5.221,5.221,0,0,0,35.732,8.285Zm-2.693,3.181L28.929,28.723A5.667,5.667,0,0,1,23.4,33.091H15.734a7.584,7.584,0,0,1-5.216-2.068L4,24.892a1.836,1.836,0,0,1,2.516-2.674l3.646,3.431a.571.571,0,0,0,.962-.416,17.6,17.6,0,0,0-.726-5L7.831,11.563a1.837,1.837,0,0,1,3.522-1.043l2.235,7.544a1.072,1.072,0,0,0,2.066-.571L12.628,5.722a1.836,1.836,0,0,1,3.556-.915l3.375,13.125a1.2,1.2,0,0,0,2.333-.057L24.159,6.822a1.838,1.838,0,1,1,3.574.853L25.7,17.6a1.025,1.025,0,0,0,2,.443l1.769-7.427a1.836,1.836,0,0,1,3.572.85Z" transform="translate(0 0)" fill="#fff"/>
</svg>
