<svg xmlns="http://www.w3.org/2000/svg" width="54.064" height="33.686" viewBox="0 0 54.064 33.686">
  <path id="Path_319" data-name="Path 319" d="M56.045,38.836l-9.56-16.558a3.839,3.839,0,0,0-6.6,0L35.56,29.732a12.912,12.912,0,0,0-6.43-1.707,13.844,13.844,0,0,0-2.162.171V25.18a4.444,4.444,0,0,0-4.438-4.438H6.938A4.444,4.444,0,0,0,2.5,25.18V40.828a4.444,4.444,0,0,0,4.438,4.438h9.9a13.052,13.052,0,0,0,24.923-.74H52.8a3.75,3.75,0,0,0,3.3-1.878A3.948,3.948,0,0,0,56.045,38.836ZM6.938,42.364A1.53,1.53,0,0,1,5.4,40.828V25.18a1.53,1.53,0,0,1,1.536-1.536H22.586a1.53,1.53,0,0,1,1.536,1.536v3.869a13,13,0,0,0-7.966,12.006,9.645,9.645,0,0,0,.057,1.309Zm22.249,8.877a10.185,10.185,0,1,1,0-20.371,10.575,10.575,0,0,1,5.007,1.309l-3.812,6.6a3.8,3.8,0,0,0,0,3.812,3.75,3.75,0,0,0,3.3,1.878h5.064A10.151,10.151,0,0,1,29.187,51.241ZM53.541,41.169a.955.955,0,0,1-.8.455H33.625a.955.955,0,0,1-.8-.455.977.977,0,0,1,0-.91L42.388,23.7a.925.925,0,0,1,1.593,0l9.56,16.558A.819.819,0,0,1,53.541,41.169Z" transform="translate(-2.5 -20.4)" fill="#fff"/>
</svg>
