<svg id="Component_23_2" data-name="Component 23 – 2" xmlns="http://www.w3.org/2000/svg" width="107.636" height="98.42" viewBox="0 0 107.636 98.42">
  <path id="Path_293" data-name="Path 293" d="M546.195,1782.378c-1.144-7.7-2.217-14.916-3.3-22.208,7.808,1.472,18.617,11.337,21.031,22.208Z" transform="translate(-512.021 -1750.512)" fill="#fff"/>
  <path id="Path_294" data-name="Path 294" d="M599.332,1829.735c0-4.558.033-8.68-.021-12.8-.015-1.178.3-1.687,1.571-1.816,3.641-.371,7.261-.965,10.906-1.3a2.649,2.649,0,0,1,2.2.992c1.979,5.278,3.782,10.621,5.621,15.9C615.505,1833.133,603.609,1832.783,599.332,1829.735Zm6.851-4.751a5.353,5.353,0,0,0,4.959-.063c1.193-.637,2.013-1.459,1.636-2a6.067,6.067,0,0,0-1.346-1.349,4.819,4.819,0,0,0-6.339.351c-.557.575-.824,1.171-.578,1.548A4.266,4.266,0,0,0,606.183,1824.984Z" transform="translate(-541.367 -1778.415)" fill="#fff"/>
  <path id="Path_295" data-name="Path 295" d="M616.58,1752.1c-.854,5.292-1.592,9.912-2.345,14.528-.411,2.514-.941,5.012-1.239,7.538-.183,1.557-.7,2.478-2.381,2.662-4,.438-8,.971-12.354,1.51C600.4,1766.649,605.633,1757.877,616.58,1752.1Z" transform="translate(-540.821 -1746.314)" fill="#fff"/>
  <path id="Path_296" data-name="Path 296" d="M536.628,1854.082c-.042-2.886.582-4.646,3.532-5.984,11.048-5.01,16.58-14.015,17.418-26.009.089-1.274.073-2.555.122-3.832a1.235,1.235,0,0,1,.187-.414c3.887-.707,4.259-.424,4.285,3.253C562.282,1836.518,551.041,1851.148,536.628,1854.082Z" transform="translate(-508.761 -1780.352)" fill="#fff"/>
  <path id="Path_297" data-name="Path 297" d="M551.351,1817.856h3.7c1.836,10.859-5.291,23.523-14.968,26.654-.011-2.892.686-5.1,3.268-7.039,4.75-3.573,7.086-8.7,7.469-14.674C550.921,1821.212,551.155,1819.636,551.351,1817.856Z" transform="translate(-510.559 -1780.519)" fill="#fff"/>
  <path id="Path_298" data-name="Path 298" d="M634.686,1875.133c.054-.036-.006.038-.067.038-8.046-.042-6.472,1.572-8.627-6.316a64.453,64.453,0,0,1-1.216-6.8.714.714,0,0,1,.465-.786c3.067-1.092,2.992-.869,4.211,2.177C631.012,1867.344,632.874,1871.123,634.686,1875.133Z" transform="translate(-554.609 -1802.789)" fill="#fff"/>
  <path id="Path_299" data-name="Path 299" d="M592.29,1868.337l-6.513-3.407a.68.68,0,0,1-.284-.916l4.789-9.128a.218.218,0,0,1,.281-.1l2.313,1.026a.67.67,0,0,1,.4.613v11.316A.673.673,0,0,1,592.29,1868.337Z" transform="translate(-534.14 -1799.72)" fill="#fff"/>
  <path id="Path_300" data-name="Path 300" d="M614.794,1874.107a4.334,4.334,0,0,1-.807.059c-4.559-.607-4.67-.68-4.815-5.207-.083-2.608-.024-5.221-.017-7.786a.565.565,0,0,1,.488-.556c3.343-.467,3.478-.119,3.74,2.948C613.679,1867.038,614.294,1870.483,614.794,1874.107Z" transform="translate(-546.475 -1802.674)" fill="#fff"/>
  <path id="Path_301" data-name="Path 301" d="M546.421,1816.476l2.8.15c-.269,5.869-.994,11.4-5.635,16.343Z" transform="translate(-512.382 -1779.801)" fill="#fff"/>
  <g id="Group_4421" data-name="Group 4421" transform="translate(43.417 79.725)">
    <path id="Path_302" data-name="Path 302" d="M584.7,1916c-.4-2.691-6.4-9.8-7.8-9.8s-7.4,7.108-7.8,9.8a4.349,4.349,0,0,0,4.321,5.156,4.9,4.9,0,0,0,2.986-1.3l-2.632,4.242a.535.535,0,0,0,.442.8h5.368a.534.534,0,0,0,.442-.8l-2.6-4.242a4.819,4.819,0,0,0,2.958,1.3A4.348,4.348,0,0,0,584.7,1916Z" transform="translate(-569.037 -1906.196)" fill="#fff"/>
  </g>
  <g id="Group_4423" data-name="Group 4423" transform="translate(0 40.129)">
    <g id="Group_4422" data-name="Group 4422" transform="translate(0 0)">
      <path id="Path_303" data-name="Path 303" d="M496.158,1827.1a5.349,5.349,0,0,0-2.974-3.052,4.714,4.714,0,0,0-1.775-.361,5.312,5.312,0,0,0-3.858,1.923,5.276,5.276,0,0,0-3.848-1.93,4.693,4.693,0,0,0-1.771.361,5.35,5.35,0,0,0-2.974,3.052,5.97,5.97,0,0,0,.158,4.69c.98,2.09,3.209,5.344,8.26,8.975l.175.126.176-.126c5.075-3.649,7.3-6.891,8.276-8.968a5.967,5.967,0,0,0,.157-4.689" transform="translate(-478.552 -1823.675)" fill="#fff" fill-rule="evenodd"/>
    </g>
  </g>
  <path id="Path_304" data-name="Path 304" d="M586.043,1745.456a47.741,47.741,0,0,1-3.063-5.2.393.393,0,0,0-.7,0,47.741,47.741,0,0,1-3.063,5.2,47.081,47.081,0,0,1-3.8,4.96.386.386,0,0,0,0,.52,47.18,47.18,0,0,1,3.8,4.96,47.765,47.765,0,0,1,3.063,5.2.393.393,0,0,0,.7,0,47.741,47.741,0,0,1,3.063-5.2,47.181,47.181,0,0,1,3.8-4.96.386.386,0,0,0,0-.52A47.147,47.147,0,0,1,586.043,1745.456Z" transform="translate(-528.887 -1740.042)" fill="#fff"/>
  <path id="Path_312" data-name="Path 312" d="M-66.268,398.06a5.435,5.435,0,0,0-.995.107.288.288,0,0,1-.319-.413,6.289,6.289,0,0,0,.638-2.542,3.924,3.924,0,0,0-3.924-3.924,3.924,3.924,0,0,0-3.924,3.924,6.289,6.289,0,0,0,.638,2.542.288.288,0,0,1-.319.413,5.431,5.431,0,0,0-.995-.107,3.924,3.924,0,0,0-3.924,3.924,3.924,3.924,0,0,0,3.924,3.924,6.426,6.426,0,0,0,2.8-.774.293.293,0,0,1,.4.394,14.252,14.252,0,0,1-2.447,3.267.292.292,0,0,0,.21.5h7.261a.292.292,0,0,0,.21-.5,14.252,14.252,0,0,1-2.447-3.267.293.293,0,0,1,.4-.394,6.42,6.42,0,0,0,2.8.774,3.924,3.924,0,0,0,3.924-3.924,3.924,3.924,0,0,0-3.924-3.924Z" transform="translate(169.98 -352.22)" fill="#fff"/>
</svg>
