<?xml version="1.0" encoding="utf-8"?>
<!-- Generator: Adobe Illustrator 24.2.3, SVG Export Plug-In . SVG Version: 6.00 Build 0)  -->
<svg version="1.1" id="Layer_1" xmlns="http://www.w3.org/2000/svg" xmlns:xlink="http://www.w3.org/1999/xlink" x="0px" y="0px"
	 viewBox="0 0 246 246" style="enable-background:new 0 0 246 246;" xml:space="preserve">
<style type="text/css">
	.st0{opacity:0;fill:url(#Ellipse_295_2_);}
	.st1{fill:url(#Ellipse_295_3_);}
	.st2{fill:none;}
	.st3{fill:#FFFFFF;}
	.st4{enable-background:new    ;}
</style>
<g>
	
		<linearGradient id="Ellipse_295_2_" gradientUnits="userSpaceOnUse" x1="-172.7927" y1="542.6784" x2="-172.7927" y2="541.6784" gradientTransform="matrix(246 0 0 -246 42630 133498.875)">
		<stop  offset="0" style="stop-color:#3C64B1"/>
		<stop  offset="1" style="stop-color:#537BC9"/>
	</linearGradient>
	<circle id="Ellipse_295_1_" class="st0" cx="123" cy="123" r="123"/>
	
		<linearGradient id="Ellipse_295_3_" gradientUnits="userSpaceOnUse" x1="-172.7927" y1="542.6403" x2="-172.7927" y2="541.7164" gradientTransform="matrix(246 0 0 -246 42630 133498.875)">
		<stop  offset="0" style="stop-color:#3C64B1"/>
		<stop  offset="1" style="stop-color:#537BC9"/>
	</linearGradient>
	<circle id="Ellipse_295" class="st1" cx="123" cy="123" r="113.6"/>
	<g>
		<g id="Path_345" transform="translate(-6738.472 -3575.764)">
			<path class="st2" d="M6896.9,3640.7l-5.7,23.8c-1,4.2-7.2,2.7-6.4-1.4l6.5-31.7c1.7-8.2-9.9-10.3-11.4-2.7l-7.3,35.4
				c-0.3,1.4-1.4,2.6-2.8,2.9c-2,0.5-4.1-0.7-4.7-2.7c0,0,0,0,0,0l-10.8-42c-1.9-7.5-13.3-4.6-11.4,2.9l9.7,37.7
				c1.1,4.3-5.3,6.1-6.6,1.8l-7.1-24.1c-2.2-7.5-13.5-4.2-11.3,3.3l8.2,27.7c1.5,5.2,2.3,10.6,2.3,16c0,0.5-0.2,0.9-0.5,1.2
				c-0.7,0.7-1.8,0.8-2.6,0.1l-11.7-11c-5.7-5.3-13.7,3.2-8,8.6l20.8,19.6c2.2,2.1,4.7,3.7,7.5,4.8c2.9,1.2,6,1.8,9.1,1.8h24.5
				c8.4,0,15.8-5.8,17.7-14l13.1-55.2C6910.1,3635.9,6898.7,3633.1,6896.9,3640.7z"/>
			<path class="st3" d="M6848.9,3617.8c-3.5,0-7,2.8-5.9,7.3l9.7,37.7c0.7,2.6-1.4,4.3-3.4,4.3c-1.3,0-2.7-0.7-3.2-2.4l-7.2-24.1
				c-0.9-2.9-3.1-4.2-5.5-4.2c-3.5,0-7.2,3-5.8,7.5l8.2,27.7c1.5,5.2,2.3,10.6,2.3,16c0,0.5-0.2,0.9-0.5,1.2
				c-0.4,0.4-0.8,0.6-1.3,0.6c-0.4,0-0.9-0.2-1.2-0.5l-11.7-11c-1.3-1.2-2.6-1.7-3.9-1.7c-4.6,0-8.5,6.1-4.1,10.2l20.8,19.6
				c2.2,2.1,4.7,3.7,7.5,4.8c2.9,1.2,6,1.8,9.1,1.8h24.5c0,0,0,0,0,0c8.4,0,15.7-5.8,17.6-14l13.1-55.2c1.1-4.4-2.5-7.2-5.9-7.2
				c-2.4,0-4.8,1.4-5.5,4.5l-5.7,23.8c-0.4,1.7-1.7,2.5-3.1,2.5c-1.9,0-3.8-1.5-3.3-3.9l6.5-31.7c1-4.7-2.4-7.4-5.8-7.4
				c-2.5,0-5,1.5-5.6,4.7l-7.3,35.4c-0.3,1.4-1.4,2.6-2.8,2.9c-0.3,0.1-0.6,0.1-1,0.1c-1.7,0-3.3-1.1-3.7-2.9l-10.8-42
				C6853.6,3619.1,6851.3,3617.8,6848.9,3617.8 M6848.9,3610.8c6,0,10.8,3.8,12.3,9.6l7.4,28.7l4.5-21.9c1.3-6.2,6.3-10.3,12.5-10.3
				c3.9,0,7.7,1.8,10.1,4.7c1.9,2.3,2.8,5.1,2.8,8.2c1.2-0.4,2.5-0.6,3.9-0.6c4.1,0,8,1.9,10.4,5c2.4,3,3.2,6.9,2.3,10.9l-13.1,55.2
				c-2.7,11.4-12.7,19.4-24.5,19.4H6853c-4.1,0-8-0.8-11.7-2.3c-3.6-1.5-6.9-3.6-9.8-6.3l-20.8-19.6c-3.9-3.7-5.2-9-3.2-13.9
				c2-5,6.9-8.4,12.1-8.4c3.2,0,6.3,1.2,8.8,3.6l1,0.9c0-0.1,0-0.1-0.1-0.2l-8.2-27.7c-1.2-4-0.5-8.1,1.9-11.3
				c2.5-3.3,6.4-5.3,10.7-5.3c1.2,0,2.4,0.2,3.5,0.5l-0.7-2.9c-1-4-0.3-7.9,2.1-11C6840.9,3612.7,6844.8,3610.8,6848.9,3610.8z"/>
		</g>
		<g class="st4">
			<path class="st3" d="M61.7,191.3c-1-0.6-1.5-1.5-1.5-2.6c0-0.6,0.2-1.2,0.5-1.6c0.4-0.4,0.8-0.6,1.3-0.6c0.5,0,1.3,0.3,2.3,0.8
				c1,0.5,2,0.8,2.8,1.1c0.8,0.3,1.9,0.4,3.2,0.4c1.3,0,2.4-0.2,3.1-0.7c0.8-0.4,1.1-1.1,1.1-1.9c0-0.5-0.2-1-0.5-1.3
				c-0.3-0.3-0.8-0.6-1.6-0.9c-0.8-0.3-2-0.6-3.6-0.9c-2.8-0.6-4.9-1.4-6.1-2.4c-1.2-1.1-1.8-2.5-1.8-4.4c0-1.4,0.4-2.7,1.2-3.8
				c0.8-1.1,2-2,3.4-2.6c1.5-0.6,3.1-0.9,5-0.9c1.3,0,2.6,0.2,3.9,0.5s2.4,0.8,3.4,1.5c1,0.6,1.5,1.5,1.5,2.5c0,0.6-0.2,1.2-0.5,1.6
				c-0.4,0.4-0.8,0.6-1.3,0.6c-0.4,0-0.7-0.1-1-0.2c-0.3-0.1-0.8-0.4-1.3-0.6c-0.9-0.5-1.7-0.8-2.4-1.1c-0.7-0.2-1.5-0.4-2.5-0.4
				c-1.2,0-2.1,0.2-2.8,0.7c-0.7,0.5-1,1.1-1,2c0,0.8,0.4,1.4,1.1,1.8c0.7,0.4,2.1,0.8,4.1,1.2c2.1,0.4,3.8,1,5,1.5
				c1.2,0.6,2.1,1.3,2.6,2.2c0.5,0.9,0.8,2,0.8,3.3c0,2.2-0.9,3.9-2.7,5.2c-1.8,1.3-4.2,2-7.2,2C66.7,193.4,63.9,192.7,61.7,191.3z"
				/>
			<path class="st3" d="M103.8,170.5c1.6,1,2.8,2.5,3.7,4.3c0.9,1.9,1.3,4,1.3,6.5c0,2.4-0.4,4.6-1.3,6.4c-0.9,1.8-2.1,3.2-3.7,4.2
				c-1.6,1-3.4,1.5-5.4,1.5c-1.7,0-3.2-0.4-4.5-1.1c-1.3-0.7-2.3-1.7-3-2.9v9.8c0,0.8-0.3,1.5-0.8,2c-0.5,0.5-1.3,0.7-2.2,0.7
				c-0.9,0-1.6-0.3-2.2-0.8c-0.6-0.5-0.8-1.2-0.8-2v-27.2c0-0.9,0.3-1.6,0.8-2.1c0.5-0.5,1.2-0.8,2.1-0.8c0.9,0,1.6,0.3,2.2,0.8
				c0.5,0.5,0.8,1.2,0.8,2.1v1.2c0.7-1.3,1.7-2.3,3-3c1.3-0.7,2.8-1.1,4.5-1.1C100.5,169,102.3,169.5,103.8,170.5z M101.3,186.8
				c1.1-1.3,1.6-3.1,1.6-5.5c0-2.4-0.5-4.3-1.6-5.7s-2.5-2-4.4-2c-1.9,0-3.4,0.7-4.4,2c-1,1.3-1.6,3.2-1.6,5.6
				c0,2.4,0.5,4.3,1.6,5.6c1,1.3,2.5,2,4.4,2C98.8,188.7,100.2,188.1,101.3,186.8z"/>
			<path class="st3" d="M118.2,191.9c-1.8-1-3.2-2.4-4.2-4.3c-1-1.9-1.5-4-1.5-6.5c0-2.5,0.5-4.6,1.5-6.5c1-1.8,2.4-3.3,4.2-4.2
				c1.8-1,3.9-1.5,6.3-1.5c2.4,0,4.5,0.5,6.3,1.5c1.8,1,3.2,2.4,4.2,4.2c1,1.8,1.5,4,1.5,6.5c0,2.5-0.5,4.6-1.5,6.5
				c-1,1.9-2.4,3.3-4.2,4.3c-1.8,1-3.9,1.5-6.3,1.5C122.1,193.4,120,192.9,118.2,191.9z M128.9,186.8c1-1.3,1.5-3.2,1.5-5.7
				c0-2.5-0.5-4.3-1.5-5.6c-1-1.3-2.5-1.9-4.4-1.9s-3.4,0.6-4.4,1.9c-1,1.3-1.6,3.2-1.6,5.6c0,2.5,0.5,4.4,1.5,5.7
				c1,1.3,2.5,1.9,4.4,1.9C126.4,188.7,127.9,188.1,128.9,186.8z"/>
			<path class="st3" d="M145.7,191.9c-1.8-1-3.1-2.4-4.1-4.2s-1.4-4-1.4-6.4c0-2.4,0.5-4.6,1.5-6.5s2.4-3.3,4.2-4.3s3.9-1.5,6.3-1.5
				c1.2,0,2.5,0.2,3.8,0.5c1.3,0.4,2.4,0.8,3.3,1.4c1,0.7,1.5,1.5,1.5,2.5c0,0.7-0.2,1.3-0.5,1.7s-0.8,0.6-1.3,0.6
				c-0.4,0-0.7-0.1-1.1-0.2s-0.8-0.4-1.2-0.6c-0.7-0.4-1.4-0.7-2-1c-0.6-0.2-1.4-0.4-2.2-0.4c-2,0-3.5,0.6-4.6,1.9
				c-1.1,1.3-1.6,3.2-1.6,5.6c0,2.4,0.5,4.2,1.6,5.5c1.1,1.3,2.6,1.9,4.6,1.9c0.8,0,1.5-0.1,2.1-0.4c0.6-0.2,1.3-0.6,2.1-1
				c0.5-0.3,0.9-0.5,1.2-0.6c0.4-0.1,0.7-0.2,1.1-0.2c0.5,0,0.9,0.2,1.3,0.7c0.4,0.4,0.5,1,0.5,1.7c0,0.5-0.1,1-0.4,1.4
				c-0.2,0.4-0.6,0.8-1.2,1.1c-1,0.6-2.1,1.1-3.5,1.5s-2.7,0.6-4,0.6C149.5,193.4,147.4,192.9,145.7,191.9z"/>
			<path class="st3" d="M186.7,190.4c0,0.7-0.3,1.4-0.8,2c-0.5,0.6-1.1,0.9-1.8,0.9c-0.7,0-1.4-0.3-2-0.9l-11.2-10.2v8.2
				c0,0.9-0.3,1.6-0.9,2.1c-0.6,0.5-1.3,0.7-2.2,0.7c-0.9,0-1.6-0.2-2.1-0.7c-0.6-0.5-0.8-1.2-0.8-2.1v-28.7c0-0.9,0.3-1.6,0.8-2.1
				c0.6-0.5,1.3-0.7,2.1-0.7c0.9,0,1.6,0.2,2.2,0.7c0.6,0.5,0.9,1.2,0.9,2.1v18l10.3-9.8c0.6-0.6,1.2-0.9,2-0.9
				c0.7,0,1.4,0.3,1.9,0.8c0.5,0.5,0.8,1.2,0.8,1.9c0,0.7-0.3,1.4-0.9,2l-7.5,7l8.4,7.5C186.3,189,186.7,189.6,186.7,190.4z"/>
		</g>
	</g>
</g>
</svg>
