<svg xmlns="http://www.w3.org/2000/svg" xmlns:xlink="http://www.w3.org/1999/xlink" width="246" height="246" viewBox="0 0 246 246">
  <defs>
    <linearGradient id="linear-gradient" x1="0.5" x2="0.5" y2="1" gradientUnits="objectBoundingBox">
      <stop offset="0" stop-color="#3c64b1"/>
      <stop offset="1" stop-color="#537bc9"/>
    </linearGradient>
  </defs>
  <g id="Group_4434" data-name="Group 4434" transform="translate(7828 3236)">
    <circle id="Ellipse_293" data-name="Ellipse 293" cx="123" cy="123" r="123" transform="translate(-7828 -3236)" fill="url(#linear-gradient)"/>
    <g id="Path_343" data-name="Path 343" transform="translate(-7102.311 -2818.41)" fill="none">
      <path d="M-565.729-345.4a4.224,4.224,0,1,0-8.436.159v16.813a4.483,4.483,0,0,1-4.483,4.481h0a4.481,4.481,0,0,1-4.481-4.481V-363.21c0-5.883-8.437-6.082-8.437-.159v34.937a4.481,4.481,0,0,1-4.481,4.481h0a4.481,4.481,0,0,1-4.481-4.481v-42.651c0-5.882-8.437-6.079-8.437-.159v42.81a4.481,4.481,0,0,1-4.481,4.481h0a4.481,4.481,0,0,1-4.481-4.481v-34.577c0-5.882-8.437-6.075-8.437-.159v47.635a3.693,3.693,0,0,1-6.7,2.141l-6.259-8.785c-3.315-4.652-10.112.54-6.781,5.215l18.939,27.359a23.087,23.087,0,0,0,18.98,9.944h27.392a9.857,9.857,0,0,0,9.606-7.644l4.542-19.705a35.969,35.969,0,0,0,.915-8.047h0Z" stroke="none"/>
      <path d="M -604.8434448242188 -375.589599609375 C -606.9205322265625 -375.589599609375 -608.9663696289062 -374.1580200195312 -608.9663696289062 -371.242431640625 L -608.9663696289062 -328.4326782226562 C -608.9663696289062 -325.9577026367188 -610.9727783203125 -323.9512939453125 -613.44775390625 -323.9512939453125 C -615.9226684570312 -323.9512939453125 -617.9290771484375 -325.9577026367188 -617.9290771484375 -328.4326782226562 L -617.9290771484375 -363.0092163085938 C -617.9290771484375 -365.993896484375 -620.1019287109375 -367.5140075683594 -622.2421264648438 -367.5140075683594 C -624.3194580078125 -367.5140075683594 -626.3660278320312 -366.0823974609375 -626.3660278320312 -363.1683349609375 L -626.3660278320312 -315.533447265625 C -626.3660278320312 -313.261474609375 -628.2144165039062 -311.8416442871094 -630.0980224609375 -311.8416442871094 C -631.1930541992188 -311.8416442871094 -632.2997436523438 -312.3212280273438 -633.0626220703125 -313.3920288085938 L -639.3212890625 -322.1765747070312 C -640.2379150390625 -323.4627990722656 -641.4212646484375 -323.9966735839844 -642.5825805664062 -323.9966735839844 C -645.6213989257812 -323.9966735839844 -648.512451171875 -320.3442077636719 -646.1018676757812 -316.9618530273438 L -627.1630249023438 -289.6026611328125 C -622.8509521484375 -283.3757934570312 -615.7584838867188 -279.6583251953125 -608.1834106445312 -279.6583251953125 L -580.7910766601562 -279.6583251953125 C -576.198974609375 -279.6583251953125 -572.216552734375 -282.828369140625 -571.1853637695312 -287.3021240234375 L -566.6428833007812 -307.0073852539062 C -566.03564453125 -309.6465454101562 -565.7288208007812 -312.3468627929688 -565.7275390625 -315.0547485351562 L -565.7288208007812 -315.0547485351562 L -565.7288208007812 -345.404541015625 C -565.7288208007812 -348.2796325683594 -567.8343505859375 -349.7532043457031 -569.9412231445312 -349.7535400390625 C -572.0521850585938 -349.7538757324219 -574.1644897460938 -348.2752075195312 -574.1644897460938 -345.2454223632812 L -574.1644897460938 -328.4326782226562 C -574.1644897460938 -325.9577026367188 -576.1722412109375 -323.9512939453125 -578.6470947265625 -323.9512939453125 C -581.1220703125 -323.9512939453125 -583.1284790039062 -325.9577026367188 -583.1284790039062 -328.4326782226562 L -583.1284790039062 -363.2103271484375 C -583.1284790039062 -366.1964111328125 -585.3021240234375 -367.7180480957031 -587.4428100585938 -367.7180480957031 C -589.5195922851562 -367.7180480957031 -591.5653686523438 -366.2859497070312 -591.5653686523438 -363.3695068359375 L -591.5653686523438 -328.4326782226562 C -591.5653686523438 -325.9577026367188 -593.5718994140625 -323.9512939453125 -596.0467529296875 -323.9512939453125 L -596.048095703125 -323.9512939453125 C -598.5230102539062 -323.9512939453125 -600.5294189453125 -325.9577026367188 -600.5294189453125 -328.4326782226562 L -600.5294189453125 -371.0833129882812 C -600.5294189453125 -374.0683898925781 -602.7030029296875 -375.589599609375 -604.8434448242188 -375.589599609375 M -604.8434448242188 -382.589599609375 C -599.1051635742188 -382.589599609375 -594.4913940429688 -378.455078125 -593.662353515625 -372.8909912109375 C -591.9091796875 -374.0541687011719 -589.7822875976562 -374.7180480957031 -587.4428100585938 -374.7180480957031 C -581.0983276367188 -374.7180480957031 -576.1284790039062 -369.6632690429688 -576.1284790039062 -363.2103271484375 L -576.1284790039062 -354.9594421386719 C -574.3767700195312 -356.1025695800781 -572.2630004882812 -356.7535400390625 -569.94189453125 -356.7535400390625 C -563.6536865234375 -356.7525329589844 -558.7288208007812 -351.7674560546875 -558.7288208007812 -345.404541015625 L -558.7288208007812 -315.0547485351562 C -558.7288208007812 -311.823486328125 -559.0963134765625 -308.587890625 -559.8211059570312 -305.4377746582031 L -564.3642578125 -285.7297058105469 C -566.13818359375 -278.0335388183594 -572.8931884765625 -272.6583251953125 -580.7910766601562 -272.6583251953125 L -608.1834106445312 -272.6583251953125 C -618.052001953125 -272.6583251953125 -627.2985229492188 -277.5028686523438 -632.9178466796875 -285.6174621582031 L -651.857421875 -312.9776916503906 C -654.3564453125 -316.4830017089844 -654.7103881835938 -320.8948364257812 -652.7492065429688 -324.700927734375 C -650.7784423828125 -328.5254516601562 -646.7877807617188 -330.9966735839844 -642.58251953125 -330.9966735839844 C -639.0419311523438 -330.9966735839844 -635.7754516601562 -329.2626037597656 -633.6207275390625 -326.2390747070312 L -633.3660278320312 -325.8815612792969 L -633.3660278320312 -363.1683349609375 C -633.3660278320312 -369.6364440917969 -628.5838012695312 -374.5140075683594 -622.2421264648438 -374.5140075683594 C -619.8724975585938 -374.5140075683594 -617.6945190429688 -373.808837890625 -615.8958129882812 -372.5891418457031 C -615.2826538085938 -378.3766174316406 -610.7363891601562 -382.589599609375 -604.8434448242188 -382.589599609375 Z" stroke="none" fill="#fff"/>
    </g>
    <text id="Paper" transform="translate(-7705 -3038)" fill="#fff" font-size="48" font-family="Nunito-Bold, Nunito" font-weight="700"><tspan x="-63.744" y="0">paper</tspan></text>
  </g>
</svg>
