<svg xmlns="http://www.w3.org/2000/svg" xmlns:xlink="http://www.w3.org/1999/xlink" width="246" height="246" viewBox="0 0 246 246">
  <defs>
    <linearGradient id="linear-gradient" x1="0.5" x2="0.5" y2="1" gradientUnits="objectBoundingBox">
      <stop offset="0" stop-color="#3c64b1"/>
      <stop offset="1" stop-color="#537bc9"/>
    </linearGradient>
  </defs>
  <g id="Group_4433" data-name="Group 4433" transform="translate(8112 3236)">
    <circle id="Ellipse_292" data-name="Ellipse 292" cx="123" cy="123" r="123" transform="translate(-8112 -3236)" fill="url(#linear-gradient)"/>
    <g id="Path_342" data-name="Path 342" transform="translate(-7492.894 -2817.212)" fill="none">
      <path d="M-466.305-354.568a3.635,3.635,0,0,1-3.576,3.723h-1.73a3.691,3.691,0,0,1-3.691-3.692v-6.171c0-7.949-12-7.776-12-.157v6.329a3.691,3.691,0,0,1-3.691,3.691H-492.6a3.691,3.691,0,0,1-3.691-3.691v-9.336c0-7.924-12-7.8-12-.157v9.492a3.691,3.691,0,0,1-3.692,3.691H-513.6a3.691,3.691,0,0,1-3.691-3.691v-6.172c0-7.935-12-7.791-12-.155v26.891a3.707,3.707,0,0,1-2.327,3.436,3.8,3.8,0,0,1-3.891-.742l-1.511-1.316a3.691,3.691,0,0,1-1.267-2.783v-9.511c0-7.892-12-7.817-12-.155v13.139a15.139,15.139,0,0,0,5.236,11.4l22.541,19.628c1.316,1.141,2.376,3.817,3.138,6.378a8.188,8.188,0,0,0,7.842,5.872h39.05a5.865,5.865,0,0,0,5.813-5,25.364,25.364,0,0,1,1.246-5.458l9.881-22.989a14.858,14.858,0,0,0,1.218-5.91v-26.4C-454.31-362.281-466.272-362.184-466.305-354.568Z" stroke="none"/>
      <path d="M -502.301513671875 -369.7876281738281 C -505.2973937988281 -369.7876281738281 -508.2899475097656 -367.8460693359375 -508.2899475097656 -364.028564453125 L -508.2899475097656 -354.5361938476562 C -508.2899475097656 -352.4979248046875 -509.9424133300781 -350.8453979492188 -511.9819641113281 -350.8453979492188 L -513.5963134765625 -350.8453979492188 C -515.634521484375 -350.8453979492188 -517.287109375 -352.4979248046875 -517.287109375 -354.5361938476562 L -517.287109375 -360.708251953125 C -517.287109375 -364.6773986816406 -520.2884521484375 -366.6252136230469 -523.2886352539062 -366.6252136230469 C -526.28662109375 -366.6252136230469 -529.2835693359375 -364.6802368164062 -529.2835693359375 -360.8635864257812 L -529.2835693359375 -333.9728393554688 C -529.2835693359375 -332.5138549804688 -530.1468505859375 -331.1375732421875 -531.61083984375 -330.5366821289062 C -532.03076171875 -330.3644714355469 -532.4715576171875 -330.2834167480469 -532.9118041992188 -330.2834167480469 C -533.844970703125 -330.2834167480469 -534.7757568359375 -330.6474609375 -535.5015869140625 -331.2789306640625 L -537.0126953125 -332.5953369140625 C -537.8172607421875 -333.2955322265625 -538.279541015625 -334.3114624023438 -538.279541015625 -335.3783569335938 L -538.279541015625 -344.8897705078125 C -538.279541015625 -348.8458862304688 -541.294189453125 -350.8001098632812 -544.301025390625 -350.8001098632812 C -547.2923583984375 -350.8001098632812 -550.2760009765625 -348.8660888671875 -550.2760009765625 -345.0451049804688 L -550.2760009765625 -331.9065551757812 C -550.2620849609375 -327.5270385742188 -548.3524169921875 -323.3677368164062 -545.0396728515625 -320.5032348632812 L -522.4991455078125 -300.8756103515625 C -521.1827392578125 -299.7349243164062 -520.12353515625 -297.058837890625 -519.3609619140625 -294.497314453125 C -518.325927734375 -291.0191650390625 -515.1468505859375 -288.6256713867188 -511.5185852050781 -288.6256713867188 L -472.46826171875 -288.6256713867188 C -469.561767578125 -288.6256713867188 -467.0753173828125 -290.7467041015625 -466.6552734375 -293.6239624023438 C -466.3560791015625 -295.6749267578125 -465.939697265625 -297.853271484375 -465.4088134765625 -299.081787109375 L -455.5281982421875 -322.0704956054688 C -454.7222900390625 -323.9368896484375 -454.3072509765625 -325.9470825195312 -454.309814453125 -327.9802856445312 L -454.309814453125 -354.380859375 C -454.309814453125 -358.341796875 -457.318115234375 -360.2923583984375 -460.3212280273438 -360.2927856445312 C -463.3074951171875 -360.2931823730469 -466.28857421875 -358.365234375 -466.3050537109375 -354.5680541992188 C -466.31396484375 -352.5361328125 -467.84814453125 -350.8453979492188 -469.8812255859375 -350.8453979492188 L -471.6114501953125 -350.8453979492188 C -473.6497802734375 -350.8453979492188 -475.30224609375 -352.4979248046875 -475.30224609375 -354.5374755859375 L -475.30224609375 -360.708251953125 C -475.30224609375 -364.6805114746094 -478.298095703125 -366.6249084472656 -481.2950439453125 -366.6249084472656 C -484.2957153320312 -366.6249084472656 -487.2974853515625 -364.6769409179688 -487.2974853515625 -360.8648071289062 L -487.2974853515625 -354.5361938476562 C -487.2974853515625 -352.4979248046875 -488.949951171875 -350.8453979492188 -490.98828125 -350.8453979492188 L -492.6039123535156 -350.8453979492188 C -494.6421203613281 -350.8453979492188 -496.2946472167969 -352.4979248046875 -496.2946472167969 -354.5361938476562 L -496.2946472167969 -363.8719482421875 C -496.2946472167969 -367.8377380371094 -499.2997436523438 -369.7876281738281 -502.301513671875 -369.7876281738281 M -502.301513671875 -376.7876281738281 C -497.0936279296875 -376.7876281738281 -492.7853698730469 -374.049072265625 -490.6818237304688 -369.8676452636719 C -488.3511352539062 -372.2112121582031 -485.0579223632812 -373.6249084472656 -481.2950439453125 -373.6249084472656 C -475.1732788085938 -373.6249084472656 -470.2955322265625 -369.831787109375 -468.787109375 -364.3583374023438 C -466.544677734375 -366.205810546875 -463.6117553710938 -367.2927856445312 -460.3222045898438 -367.2927856445312 C -452.9035034179688 -367.291748046875 -447.309814453125 -361.7408142089844 -447.309814453125 -354.380859375 L -447.309814453125 -327.9802856445312 C -447.3060302734375 -324.98291015625 -447.908935546875 -322.0579223632812 -449.1017456054688 -319.2955017089844 L -458.9776611328125 -296.3176574707031 C -458.9871215820312 -296.293212890625 -459.3178100585938 -295.4296569824219 -459.7285766601562 -292.6135559082031 C -460.6431274414062 -286.3490905761719 -466.1199951171875 -281.6256713867188 -472.46826171875 -281.6256713867188 L -511.5185852050781 -281.6256713867188 C -518.28662109375 -281.6256713867188 -524.134521484375 -285.9960327148438 -526.0701904296875 -292.5007629394531 C -526.849853515625 -295.1197509765625 -527.4219970703125 -295.9310913085938 -527.4276733398438 -295.9389953613281 L -549.6365356445312 -315.2241516113281 C -554.4644775390625 -319.3987121582031 -557.255615234375 -325.4769287109375 -557.2760009765625 -331.8843383789062 L -557.2760009765625 -345.0451049804688 C -557.2760009765625 -352.316650390625 -551.697998046875 -357.8001098632812 -544.301025390625 -357.8001098632812 C -541.225830078125 -357.8001098632812 -538.4639892578125 -356.8477172851562 -536.2835693359375 -355.2087707519531 L -536.2835693359375 -360.8635864257812 C -536.2835693359375 -368.138916015625 -530.6969604492188 -373.6252136230469 -523.2886352539062 -373.6252136230469 C -519.550048828125 -373.6252136230469 -516.275146484375 -372.2124328613281 -513.947265625 -369.8670959472656 C -511.8626098632812 -374.0452270507812 -507.5372619628906 -376.7876281738281 -502.301513671875 -376.7876281738281 Z" stroke="none" fill="#fff"/>
    </g>
    <text id="Rock" transform="translate(-7989 -3038)" fill="#fff" font-size="48" font-family="Nunito-Bold, Nunito" font-weight="700"><tspan x="-47.328" y="0">rock</tspan></text>
  </g>
</svg>
