<?xml version="1.0" encoding="utf-8"?>
<!-- Generator: Adobe Illustrator 24.2.3, SVG Export Plug-In . SVG Version: 6.00 Build 0)  -->
<svg version="1.1" id="Layer_1" xmlns="http://www.w3.org/2000/svg" xmlns:xlink="http://www.w3.org/1999/xlink" x="0px" y="0px"
	 viewBox="0 0 246 246" style="enable-background:new 0 0 246 246;" xml:space="preserve">
<style type="text/css">
	.st0{opacity:0;fill:url(#Ellipse_295_2_);}
	.st1{fill:url(#Ellipse_295_3_);}
	.st2{fill:none;}
	.st3{fill:#FFFFFF;}
	.st4{enable-background:new    ;}
</style>
<g>
	
		<linearGradient id="Ellipse_295_2_" gradientUnits="userSpaceOnUse" x1="-172.7927" y1="542.6784" x2="-172.7927" y2="541.6784" gradientTransform="matrix(246 0 0 -246 42630 133498.875)">
		<stop  offset="0" style="stop-color:#3C64B1"/>
		<stop  offset="1" style="stop-color:#537BC9"/>
	</linearGradient>
	<circle id="Ellipse_295_1_" class="st0" cx="123" cy="123" r="123"/>
	
		<linearGradient id="Ellipse_295_3_" gradientUnits="userSpaceOnUse" x1="-172.7927" y1="542.6403" x2="-172.7927" y2="541.7164" gradientTransform="matrix(246 0 0 -246 42630 133498.875)">
		<stop  offset="0" style="stop-color:#3C64B1"/>
		<stop  offset="1" style="stop-color:#537BC9"/>
	</linearGradient>
	<circle id="Ellipse_295" class="st1" cx="123" cy="123" r="113.6"/>
	<g id="Group_4433" transform="translate(8112 3236)">
		<g id="Path_342" transform="translate(-7492.894 -2817.212)">
			<path class="st2" d="M-466.3-354.6c0,2-1.5,3.7-3.5,3.7c0,0,0,0,0,0h-1.7c-2,0-3.7-1.7-3.7-3.7c0,0,0,0,0,0v-6.2
				c0-7.9-12-7.8-12-0.2v6.3c0,2-1.7,3.7-3.7,3.7c0,0,0,0,0,0h-1.6c-2,0-3.7-1.7-3.7-3.7c0,0,0,0,0,0v-9.3c0-7.9-12-7.8-12-0.2v9.5
				c0,2-1.7,3.7-3.7,3.7c0,0,0,0,0,0h-1.6c-2,0-3.7-1.7-3.7-3.7v-6.2c0-7.9-12-7.8-12-0.2v26.9c0,1.5-0.9,2.9-2.3,3.4
				c-1.3,0.5-2.8,0.2-3.9-0.7l-1.5-1.3c-0.8-0.7-1.3-1.7-1.3-2.8v-9.5c0-7.9-12-7.8-12-0.2v13.1c0,4.4,1.9,8.5,5.2,11.4l22.5,19.6
				c1.3,1.1,2.4,3.8,3.1,6.4c1,3.5,4.2,5.9,7.8,5.9h39c2.9,0,5.4-2.1,5.8-5c0.2-1.9,0.6-3.7,1.2-5.5l9.9-23c0.8-1.9,1.2-3.9,1.2-5.9
				v-26.4C-454.3-362.3-466.3-362.2-466.3-354.6z"/>
			<path class="st3" d="M-502.3-369.8c-3,0-6,1.9-6,5.8v9.5c0,2-1.7,3.7-3.7,3.7h-1.6c-2,0-3.7-1.7-3.7-3.7v-6.2c0-4-3-5.9-6-5.9
				c-3,0-6,1.9-6,5.8v26.9c0,1.5-0.9,2.8-2.3,3.4c-0.4,0.2-0.9,0.3-1.3,0.3c-0.9,0-1.9-0.4-2.6-1l-1.5-1.3c-0.8-0.7-1.3-1.7-1.3-2.8
				v-9.5c0-4-3-5.9-6-5.9c-3,0-6,1.9-6,5.8v13.1c0,4.4,1.9,8.5,5.2,11.4l22.5,19.6c1.3,1.1,2.4,3.8,3.1,6.4c1,3.5,4.2,5.9,7.8,5.9
				h39.1c2.9,0,5.4-2.1,5.8-5c0.3-2.1,0.7-4.2,1.2-5.5l9.9-23c0.8-1.9,1.2-3.9,1.2-5.9v-26.4c0-4-3-5.9-6-5.9c-3,0-6,1.9-6,5.7
				c0,2-1.5,3.7-3.6,3.7h-1.7c-2,0-3.7-1.7-3.7-3.7v-6.2c0-4-3-5.9-6-5.9c-3,0-6,1.9-6,5.8v6.3c0,2-1.7,3.7-3.7,3.7h-1.6
				c-2,0-3.7-1.7-3.7-3.7v-9.3C-496.3-367.8-499.3-369.8-502.3-369.8 M-502.3-376.8c5.2,0,9.5,2.7,11.6,6.9c2.3-2.3,5.6-3.8,9.4-3.8
				c6.1,0,11,3.8,12.5,9.3c2.2-1.8,5.2-2.9,8.5-2.9c7.4,0,13,5.6,13,12.9v26.4c0,3-0.6,5.9-1.8,8.7l-9.9,23c0,0-0.3,0.9-0.8,3.7
				c-0.9,6.3-6.4,11-12.7,11h-39.1c-6.8,0-12.6-4.4-14.6-10.9c-0.8-2.6-1.4-3.4-1.4-3.4l-22.2-19.3c-4.8-4.2-7.6-10.3-7.6-16.7V-345
				c0-7.3,5.6-12.8,13-12.8c3.1,0,5.8,1,8,2.6v-5.7c0-7.3,5.6-12.8,13-12.8c3.7,0,7,1.4,9.3,3.8C-511.9-374-507.5-376.8-502.3-376.8
				z"/>
		</g>
		<g class="st4">
			<path class="st3" d="M-8018.1-3066.4c0.5,0.4,0.7,1,0.7,1.9c0,0.9-0.2,1.5-0.6,1.9c-0.4,0.4-1.2,0.7-2.3,0.8l-1.4,0.1
				c-1.9,0.2-3.3,0.8-4.2,1.9c-0.9,1.1-1.3,2.4-1.3,4.1v10.1c0,0.9-0.3,1.6-0.9,2.1c-0.6,0.5-1.3,0.7-2.2,0.7
				c-0.9,0-1.6-0.2-2.1-0.7c-0.6-0.5-0.8-1.2-0.8-2.1v-18.6c0-0.9,0.3-1.6,0.8-2.1c0.6-0.5,1.3-0.7,2.1-0.7c0.8,0,1.5,0.2,2,0.7
				c0.5,0.5,0.8,1.1,0.8,2v1.9c0.6-1.4,1.5-2.5,2.7-3.3c1.2-0.8,2.5-1.2,4-1.3l0.7,0C-8019.3-3067-8018.6-3066.8-8018.1-3066.4z"/>
			<path class="st3" d="M-8010.9-3044.1c-1.8-1-3.2-2.4-4.2-4.3c-1-1.9-1.5-4-1.5-6.5c0-2.5,0.5-4.6,1.5-6.5c1-1.8,2.4-3.3,4.2-4.2
				c1.8-1,3.9-1.5,6.3-1.5c2.4,0,4.5,0.5,6.3,1.5c1.8,1,3.2,2.4,4.2,4.2c1,1.8,1.5,4,1.5,6.5c0,2.5-0.5,4.6-1.5,6.5
				c-1,1.9-2.4,3.3-4.2,4.3c-1.8,1-3.9,1.5-6.3,1.5C-8007-3042.6-8009.1-3043.1-8010.9-3044.1z M-8000.2-3049.2
				c1-1.3,1.5-3.2,1.5-5.7c0-2.5-0.5-4.3-1.5-5.6c-1-1.3-2.5-1.9-4.4-1.9c-1.9,0-3.4,0.6-4.4,1.9c-1,1.3-1.6,3.2-1.6,5.6
				c0,2.5,0.5,4.4,1.5,5.7c1,1.3,2.5,1.9,4.4,1.9C-8002.7-3047.3-8001.2-3047.9-8000.2-3049.2z"/>
			<path class="st3" d="M-7983.5-3044.1c-1.8-1-3.1-2.4-4.1-4.2c-1-1.8-1.4-4-1.4-6.4c0-2.4,0.5-4.6,1.5-6.5c1-1.9,2.4-3.3,4.2-4.3
				s3.9-1.5,6.3-1.5c1.2,0,2.5,0.2,3.8,0.5c1.3,0.4,2.4,0.8,3.3,1.4c1,0.7,1.5,1.5,1.5,2.5c0,0.7-0.2,1.3-0.5,1.7
				c-0.3,0.4-0.8,0.6-1.3,0.6c-0.4,0-0.7-0.1-1.1-0.2s-0.8-0.4-1.2-0.6c-0.7-0.4-1.4-0.7-2-1c-0.6-0.2-1.4-0.4-2.2-0.4
				c-2,0-3.5,0.6-4.6,1.9c-1.1,1.3-1.6,3.2-1.6,5.6c0,2.4,0.5,4.2,1.6,5.5s2.6,1.9,4.6,1.9c0.8,0,1.5-0.1,2.1-0.4
				c0.6-0.2,1.3-0.6,2.1-1c0.5-0.3,0.9-0.5,1.2-0.6c0.4-0.1,0.7-0.2,1.1-0.2c0.5,0,0.9,0.2,1.3,0.7c0.4,0.4,0.5,1,0.5,1.7
				c0,0.5-0.1,1-0.4,1.4s-0.6,0.8-1.2,1.1c-1,0.6-2.1,1.1-3.5,1.5c-1.3,0.4-2.7,0.6-4,0.6
				C-7979.6-3042.6-7981.7-3043.1-7983.5-3044.1z"/>
			<path class="st3" d="M-7942.4-3045.6c0,0.7-0.3,1.4-0.8,2c-0.5,0.6-1.1,0.9-1.8,0.9c-0.7,0-1.4-0.3-2-0.9l-11.2-10.2v8.2
				c0,0.9-0.3,1.6-0.9,2.1c-0.6,0.5-1.3,0.7-2.2,0.7c-0.9,0-1.6-0.2-2.1-0.7c-0.6-0.5-0.8-1.2-0.8-2.1v-28.7c0-0.9,0.3-1.6,0.8-2.1
				c0.6-0.5,1.3-0.7,2.1-0.7c0.9,0,1.6,0.2,2.2,0.7c0.6,0.5,0.9,1.2,0.9,2.1v18l10.3-9.8c0.6-0.6,1.2-0.9,2-0.9
				c0.7,0,1.4,0.3,1.9,0.8c0.5,0.5,0.8,1.2,0.8,1.9c0,0.7-0.3,1.4-0.9,2l-7.5,7l8.4,7.5C-7942.8-3047-7942.4-3046.4-7942.4-3045.6z"
				/>
		</g>
	</g>
</g>
</svg>
