<svg xmlns="http://www.w3.org/2000/svg" xmlns:xlink="http://www.w3.org/1999/xlink" width="246" height="246" viewBox="0 0 246 246">
  <defs>
    <linearGradient id="linear-gradient" x1="0.5" x2="0.5" y2="1" gradientUnits="objectBoundingBox">
      <stop offset="0" stop-color="#3c64b1"/>
      <stop offset="1" stop-color="#537bc9"/>
    </linearGradient>
  </defs>
  <g id="Group_4437" data-name="Group 4437" transform="translate(7022 3236)">
    <circle id="Ellipse_296" data-name="Ellipse 296" cx="123" cy="123" r="123" transform="translate(-7022 -3236)" fill="url(#linear-gradient)"/>
    <g id="Path_345" data-name="Path 345" transform="translate(-6738.472 -3575.764)" fill="none">
      <path d="M-125.087,404.724l-5.657,23.758c-1,4.2-7.25,2.713-6.4-1.418l6.512-31.747c1.687-8.229-9.881-10.282-11.434-2.729l-7.252,35.353a3.836,3.836,0,0,1-2.787,2.927,3.832,3.832,0,0,1-4.676-2.743l-10.8-41.984c-1.924-7.48-13.316-4.624-11.376,2.928l9.678,37.652c1.1,4.271-5.336,6.139-6.608,1.827l-7.15-24.13c-2.205-7.451-13.482-4.163-11.257,3.328l8.211,27.725a56.348,56.348,0,0,1,2.322,16.005,1.831,1.831,0,0,1-.495,1.248,1.826,1.826,0,0,1-2.581.081L-198.5,441.83c-5.654-5.335-13.7,3.238-8.048,8.558L-185.7,470a23.79,23.79,0,0,0,7.545,4.842,24.717,24.717,0,0,0,9.139,1.772H-144.5a18.13,18.13,0,0,0,17.694-13.974l13.145-55.2C-111.867,399.919-123.27,397.117-125.087,404.724Z" stroke="none"/>
      <path d="M -173.0952911376953 381.764404296875 C -176.5669555664062 381.764404296875 -180.1039428710938 384.5909729003906 -178.9532012939453 389.0691833496094 L -169.2748870849609 426.7207336425781 C -168.6124725341797 429.2958374023438 -170.6889953613281 430.9977416992188 -172.7210388183594 430.9977416992188 C -174.05908203125 430.9977416992188 -175.3777465820312 430.2600402832031 -175.8828125 428.5478820800781 L -183.0331268310547 404.4175109863281 C -183.9023895263672 401.4806213378906 -186.1817016601562 400.2118835449219 -188.4873199462891 400.2118835449219 C -192.0310668945312 400.2118835449219 -195.637939453125 403.2071533203125 -194.2899475097656 407.7457580566406 L -186.0792083740234 435.4703369140625 C -184.5399475097656 440.6662902832031 -183.757080078125 446.0564575195312 -183.757080078125 451.4755859375 C -183.7582092285156 451.9393310546875 -183.9351501464844 452.3856506347656 -184.2520141601562 452.7233581542969 C -184.6113433837891 453.1061706542969 -185.096923828125 453.2994384765625 -185.58349609375 453.2994384765625 C -186.0318450927734 453.2994384765625 -186.4810333251953 453.1353759765625 -186.8331756591797 452.8043212890625 L -198.4959411621094 441.8296508789062 C -199.7523803710938 440.6441345214844 -201.1277160644531 440.1452331542969 -202.4438171386719 440.1452331542969 C -207.0499725341797 440.1452331542969 -210.9392395019531 446.2498779296875 -206.5436401367188 450.3873291015625 L -185.7010345458984 470.0029602050781 C -183.5165100097656 472.0799255371094 -180.9561309814453 473.7232360839844 -178.1563873291016 474.8449401855469 C -175.2502593994141 476.0094909667969 -172.148681640625 476.6097106933594 -169.0170135498047 476.6166687011719 L -144.5003967285156 476.6166687011719 C -144.4849548339844 476.61669921875 -144.4681701660156 476.6167297363281 -144.4527435302734 476.6167297363281 C -136.0428924560547 476.6167297363281 -128.7356567382812 470.8321228027344 -126.8067932128906 462.6421813964844 L -113.6614990234375 407.4439086914062 C -112.6056823730469 403.0173034667969 -116.117919921875 400.2250366210938 -119.5583953857422 400.224609375 C -121.9665222167969 400.2243347167969 -124.3390960693359 401.5918273925781 -125.087158203125 404.7239990234375 L -130.7444915771484 428.48193359375 C -131.1605072021484 430.2272338867188 -132.4820709228516 430.99072265625 -133.8240356445312 430.99072265625 C -135.7125549316406 430.99072265625 -137.6416168212891 429.4790344238281 -137.1454010009766 427.064208984375 L -130.6334533691406 395.3174743652344 C -129.6640777587891 390.5895690917969 -133.0702972412109 387.9002380371094 -136.4385375976562 387.9002380371094 C -138.9329681396484 387.9002380371094 -141.4064331054688 389.3747253417969 -142.0672302246094 392.5882263183594 L -149.3192901611328 427.9407348632812 C -149.6176605224609 429.3666381835938 -150.6966094970703 430.4999694824219 -152.1063079833984 430.8677062988281 C -152.4304504394531 430.9522705078125 -152.7557983398438 430.9927062988281 -153.0758819580078 430.9927062988281 C -154.7782592773438 430.9927062988281 -156.3330688476562 429.8495788574219 -156.7818603515625 428.1246337890625 L -167.5772399902344 386.14111328125 C -168.3603973388672 383.0968933105469 -170.7127227783203 381.764404296875 -173.0952911376953 381.764404296875 M -173.0952911376953 374.764404296875 C -167.1303558349609 374.764404296875 -162.3033752441406 378.5454406738281 -160.7979736328125 384.3970642089844 L -153.4192504882812 413.0931396484375 L -148.9244384765625 391.1815795898438 C -147.6596069335938 385.0306701660156 -142.6421966552734 380.9002380371094 -136.4385375976562 380.9002380371094 C -132.5036468505859 380.9002380371094 -128.7097930908203 382.6712036132812 -126.2899169921875 385.6375427246094 C -124.4095458984375 387.9425964355469 -123.4437866210938 390.7781066894531 -123.4654846191406 393.8230895996094 C -122.236572265625 393.4322509765625 -120.9241638183594 393.2246398925781 -119.5591888427734 393.2246398925781 C -115.4793090820312 393.22509765625 -111.5766906738281 395.0841064453125 -109.118896484375 398.1974792480469 C -106.7124481201172 401.2457580566406 -105.9075775146484 405.1062927246094 -106.8524932861328 409.0679626464844 L -119.9972381591797 464.2638549804688 C -122.67919921875 475.6515502929688 -132.7373199462891 483.6167297363281 -144.4527587890625 483.6167297363281 L -169.0170135498047 483.6166687011719 C -173.0713500976562 483.607666015625 -177.01708984375 482.8425903320312 -180.7601776123047 481.3426513671875 C -184.3988800048828 479.8848266601562 -187.6841583251953 477.7763366699219 -190.5243377685547 475.0759887695312 L -211.341064453125 455.48486328125 C -215.2697448730469 451.7868957519531 -216.5062866210938 446.4547424316406 -214.5685424804688 441.5688171386719 C -212.5702819824219 436.5304260253906 -207.6977233886719 433.145263671875 -202.4438171386719 433.145263671875 C -199.2095031738281 433.145263671875 -196.1831665039062 434.3877258300781 -193.6919555664062 436.73828125 L -192.7389831542969 437.6350402832031 C -192.7561492919922 437.5763244628906 -192.7735137939453 437.5172729492188 -192.7908935546875 437.4586181640625 L -201.0018005371094 409.7334899902344 C -202.1856536865234 405.7474975585938 -201.5080871582031 401.6392211914062 -199.1412963867188 398.46728515625 C -196.6858367919922 395.176513671875 -192.7030334472656 393.2118835449219 -188.4873199462891 393.2118835449219 C -187.2734222412109 393.2118835449219 -186.102294921875 393.3741760253906 -184.9947662353516 393.6830749511719 L -185.7327880859375 390.8118896484375 C -186.7594604492188 386.8166198730469 -186.0023498535156 382.9114074707031 -183.6011352539062 379.8151245117188 C -181.1484680175781 376.6525268554688 -177.2210540771484 374.764404296875 -173.0952911376953 374.764404296875 Z" stroke="none" fill="#fff"/>
    </g>
    <text id="Spock" transform="translate(-6899 -3038)" fill="#fff" font-size="48" font-family="Nunito-Bold, Nunito" font-weight="700"><tspan x="-64.44" y="0">spock</tspan></text>
  </g>
</svg>
