<?xml version="1.0" encoding="utf-8"?>
<!-- Generator: Adobe Illustrator 24.2.3, SVG Export Plug-In . SVG Version: 6.00 Build 0)  -->
<svg version="1.1" id="Layer_1" xmlns="http://www.w3.org/2000/svg" xmlns:xlink="http://www.w3.org/1999/xlink" x="0px" y="0px"
	 viewBox="0 0 246 246" style="enable-background:new 0 0 246 246;" xml:space="preserve">
<style type="text/css">
	.st0{opacity:0;fill:url(#Ellipse_295_2_);}
	.st1{fill:url(#Ellipse_295_3_);}
	.st2{fill:none;}
	.st3{fill:#FFFFFF;}
	.st4{enable-background:new    ;}
</style>
<g>
	
		<linearGradient id="Ellipse_295_2_" gradientUnits="userSpaceOnUse" x1="-172.7927" y1="542.6784" x2="-172.7927" y2="541.6784" gradientTransform="matrix(246 0 0 -246 42630 133498.875)">
		<stop  offset="0" style="stop-color:#3C64B1"/>
		<stop  offset="1" style="stop-color:#537BC9"/>
	</linearGradient>
	<circle id="Ellipse_295_1_" class="st0" cx="123" cy="123" r="123"/>
	
		<linearGradient id="Ellipse_295_3_" gradientUnits="userSpaceOnUse" x1="-172.7927" y1="542.6403" x2="-172.7927" y2="541.7164" gradientTransform="matrix(246 0 0 -246 42630 133498.875)">
		<stop  offset="0" style="stop-color:#3C64B1"/>
		<stop  offset="1" style="stop-color:#537BC9"/>
	</linearGradient>
	<circle id="Ellipse_295" class="st1" cx="123" cy="123" r="113.6"/>
	<g id="Path_344" transform="translate(-6493.214 -2812.181)">
		<path class="st2" d="M6625.6,2868.4c-0.9-1.4-2.5-2.2-4.1-2.2h-60.2c-0.9,0-1.6,0.7-1.6,1.6v1.6c0,3.6,2.9,6.5,6.5,6.5h43.7
			c0.9,0,1.8,0.2,2.6,0.5c3.8,1.4,5.7,5.7,4.3,9.5c0,0,0,0,0,0l-5,13.2c-1.5,3.8-5.1,6.3-9.2,6.3h-23.3c-4.5,0-8.2,3.7-8.2,8.2
			c0,0.9,0.7,1.6,1.6,1.6h26.9c1.8,0,3.6,0.3,5.3,1l20.4,7.9c3.8,1.5,6.3,5.1,6.3,9.2v1.5c0,1.8,1.5,3.3,3.3,3.3h19.6
			c1.8,0,3.3-1.5,3.3-3.3v-12.3c0-2.8-0.8-5.6-2.4-8L6625.6,2868.4z"/>
		<path class="st3" d="M6621.5,2866.2C6621.5,2866.2,6621.5,2866.2,6621.5,2866.2h-60.2c-0.9,0-1.6,0.7-1.6,1.6v1.6
			c0,3.6,2.9,6.5,6.5,6.5h43.7c0.9,0,1.8,0.2,2.6,0.5c3.8,1.5,5.7,5.7,4.3,9.5l-5,13.2c-1.5,3.8-5.1,6.3-9.2,6.3h-23.3
			c-4.5,0-8.2,3.7-8.2,8.2c0,0.9,0.7,1.6,1.6,1.6h26.9c0,0,0,0,0,0c1.8,0,3.6,0.3,5.3,1l20.4,7.9c3.8,1.5,6.3,5.1,6.3,9.2v1.5
			c0,1.8,1.5,3.3,3.3,3.3h19.6c1.8,0,3.3-1.5,3.3-3.3v-12.3c0-2.8-0.8-5.6-2.4-8l-30-46.2C6624.7,2867,6623.2,2866.2,6621.5,2866.2
			 M6561.3,2859.2h60.2h0c4.1,0,7.8,2,10,5.4l29.9,46.2c2.3,3.5,3.5,7.6,3.5,11.8v12.3c0,5.7-4.6,10.3-10.3,10.3H6635
			c-5.7,0-10.3-4.6-10.3-10.3v-1.5c0-1.2-0.7-2.2-1.8-2.6l-20.4-7.9c-0.9-0.4-1.8-0.5-2.8-0.5h-26.9c-4.8,0-8.6-3.9-8.6-8.6
			c0-8.4,6.8-15.2,15.2-15.2h23.3c1.2,0,2.2-0.7,2.6-1.8l5-13.1l-44-0.5c-7.5,0-13.5-6.1-13.5-13.5v-1.6
			C6552.7,2863.1,6556.6,2859.2,6561.3,2859.2z"/>
	</g>
	<g class="st4">
		<path class="st3" d="M66.3,191.5c-0.6-0.5-0.8-1.2-0.8-2.1v-28.7c0-0.9,0.3-1.6,0.8-2.1c0.6-0.5,1.3-0.7,2.1-0.7
			c0.9,0,1.6,0.2,2.2,0.7c0.6,0.5,0.9,1.2,0.9,2.1v28.7c0,0.9-0.3,1.6-0.9,2.1c-0.6,0.5-1.3,0.7-2.2,0.7
			C67.6,192.3,66.9,192,66.3,191.5z"/>
		<path class="st3" d="M78,162.9c-0.6-0.6-1-1.4-1-2.3s0.3-1.7,1-2.3c0.6-0.6,1.5-0.9,2.6-0.9c1.1,0,1.9,0.3,2.6,0.9
			c0.7,0.6,1,1.3,1,2.3s-0.3,1.7-1,2.3c-0.6,0.6-1.5,0.9-2.6,0.9C79.6,163.8,78.7,163.5,78,162.9z M78.5,191.5
			c-0.6-0.5-0.8-1.2-0.8-2.1v-18.5c0-0.9,0.3-1.6,0.8-2.1c0.6-0.5,1.3-0.7,2.1-0.7c0.9,0,1.6,0.2,2.2,0.7c0.6,0.5,0.9,1.2,0.9,2.1
			v18.5c0,0.9-0.3,1.6-0.9,2.1c-0.6,0.5-1.3,0.7-2.2,0.7C79.8,192.3,79.1,192,78.5,191.5z"/>
		<path class="st3" d="M110,189.7c0,0.7-0.2,1.3-0.7,1.7c-0.4,0.4-1.1,0.6-2,0.6h-16c-0.8,0-1.5-0.3-2-0.8c-0.5-0.5-0.8-1.1-0.8-1.8
			c0-0.7,0.3-1.4,0.9-2.1l12.3-14.3H91.1c-0.9,0-1.6-0.2-2-0.6c-0.4-0.4-0.7-0.9-0.7-1.7s0.2-1.3,0.7-1.7c0.4-0.4,1.1-0.6,2-0.6
			h15.5c0.8,0,1.5,0.2,2,0.7c0.5,0.5,0.7,1.1,0.7,1.8c0,0.8-0.3,1.5-0.8,2.1l-12.4,14.3h11.2C109.1,187.5,110,188.2,110,189.7z"/>
		<path class="st3" d="M131.5,170.4c1.6,1.6,2.4,4.1,2.4,7.4v11.7c0,0.9-0.3,1.5-0.8,2s-1.2,0.7-2.1,0.7c-0.8,0-1.5-0.3-2-0.8
			c-0.5-0.5-0.8-1.2-0.8-2v-1.1c-0.5,1.2-1.4,2.2-2.6,2.9c-1.2,0.7-2.5,1.1-4.1,1.1c-1.6,0-3-0.3-4.3-1c-1.3-0.6-2.3-1.5-3-2.6
			c-0.7-1.1-1.1-2.4-1.1-3.7c0-1.7,0.4-3.1,1.3-4.1c0.9-1,2.3-1.7,4.3-2.2c2-0.4,4.7-0.7,8.2-0.7h1.2V177c0-1.6-0.3-2.7-1-3.4
			c-0.7-0.7-1.8-1.1-3.3-1.1c-0.9,0-1.9,0.1-2.8,0.4c-1,0.3-2.1,0.7-3.4,1.2c-0.8,0.4-1.4,0.6-1.8,0.6c-0.6,0-1-0.2-1.4-0.6
			c-0.4-0.4-0.6-1-0.6-1.6c0-0.5,0.1-1,0.4-1.4c0.3-0.4,0.7-0.8,1.4-1.1c1.1-0.6,2.5-1.1,4-1.4c1.6-0.4,3.1-0.5,4.6-0.5
			C127.5,168,130,168.8,131.5,170.4z M126.7,186.5c1-1.1,1.5-2.5,1.5-4.2v-1h-0.9c-2.1,0-3.8,0.1-5,0.3c-1.2,0.2-2,0.5-2.5,1
			c-0.5,0.5-0.8,1.1-0.8,2c0,1,0.4,1.9,1.1,2.5c0.7,0.7,1.6,1,2.7,1C124.4,188.1,125.7,187.5,126.7,186.5z"/>
		<path class="st3" d="M155.1,168.6c0.5,0.4,0.7,1,0.7,1.9c0,0.9-0.2,1.5-0.6,1.9s-1.2,0.7-2.3,0.8l-1.4,0.1
			c-1.9,0.2-3.3,0.8-4.2,1.9c-0.9,1.1-1.3,2.4-1.3,4.1v10.1c0,0.9-0.3,1.6-0.9,2.1c-0.6,0.5-1.3,0.7-2.2,0.7c-0.9,0-1.6-0.2-2.1-0.7
			s-0.8-1.2-0.8-2.1v-18.6c0-0.9,0.3-1.6,0.8-2.1c0.6-0.5,1.3-0.7,2.1-0.7s1.5,0.2,2,0.7c0.5,0.5,0.8,1.1,0.8,2v1.9
			c0.6-1.4,1.5-2.5,2.7-3.3c1.2-0.8,2.5-1.2,4-1.3l0.7,0C154,168,154.6,168.2,155.1,168.6z"/>
		<path class="st3" d="M179.7,158.7c0.6,0.5,0.9,1.2,0.9,2v28.7c0,0.9-0.3,1.6-0.8,2.1c-0.5,0.5-1.3,0.8-2.2,0.8
			c-0.9,0-1.6-0.3-2.2-0.8c-0.5-0.5-0.8-1.2-0.8-2.1v-1.2c-0.7,1.3-1.7,2.3-3,3.1c-1.3,0.7-2.8,1.1-4.5,1.1c-2,0-3.8-0.5-5.4-1.5
			c-1.6-1-2.8-2.5-3.7-4.3s-1.3-4-1.3-6.5c0-2.4,0.4-4.6,1.3-6.4s2.1-3.2,3.7-4.2c1.6-1,3.4-1.5,5.4-1.5c1.7,0,3.2,0.4,4.5,1.1
			c1.3,0.7,2.3,1.7,3,3v-11.4c0-0.8,0.3-1.4,0.8-1.9c0.5-0.5,1.2-0.7,2.1-0.7C178.4,157.9,179.1,158.2,179.7,158.7z M173.1,185.8
			c1-1.3,1.6-3.2,1.6-5.6c0-2.4-0.5-4.3-1.6-5.6s-2.5-1.9-4.4-1.9c-1.9,0-3.4,0.6-4.5,1.9c-1.1,1.3-1.6,3.1-1.6,5.5
			c0,2.4,0.5,4.3,1.6,5.7c1.1,1.3,2.5,2,4.4,2C170.5,187.7,172,187.1,173.1,185.8z"/>
	</g>
</g>
</svg>
