<?xml version="1.0" encoding="utf-8"?>
<!-- Generator: Adobe Illustrator 24.2.3, SVG Export Plug-In . SVG Version: 6.00 Build 0)  -->
<svg version="1.1" id="Layer_1" xmlns="http://www.w3.org/2000/svg" xmlns:xlink="http://www.w3.org/1999/xlink" x="0px" y="0px"
	 viewBox="0 0 246 246" style="enable-background:new 0 0 246 246;" xml:space="preserve">
<style type="text/css">
	.st0{opacity:0;fill:url(#Ellipse_295_2_);}
	.st1{fill:url(#Ellipse_295_3_);}
	.st2{fill:none;}
	.st3{fill:#FFFFFF;}
	.st4{enable-background:new    ;}
</style>
<g>
	
		<linearGradient id="Ellipse_295_2_" gradientUnits="userSpaceOnUse" x1="-172.7927" y1="542.6784" x2="-172.7927" y2="541.6784" gradientTransform="matrix(246 0 0 -246 42630 133498.875)">
		<stop  offset="0" style="stop-color:#3C64B1"/>
		<stop  offset="1" style="stop-color:#537BC9"/>
	</linearGradient>
	<circle id="Ellipse_295_1_" class="st0" cx="123" cy="123" r="123"/>
	
		<linearGradient id="Ellipse_295_3_" gradientUnits="userSpaceOnUse" x1="-172.7927" y1="542.6403" x2="-172.7927" y2="541.7164" gradientTransform="matrix(246 0 0 -246 42630 133498.875)">
		<stop  offset="0" style="stop-color:#3C64B1"/>
		<stop  offset="1" style="stop-color:#537BC9"/>
	</linearGradient>
	<circle id="Ellipse_295" class="st1" cx="123" cy="123" r="113.6"/>
	<g id="Group_4435" transform="translate(7568 3236)">
		<g id="Path_339" transform="translate(-7074.529 -2817.124)">
			<path class="st2" d="M-334.4-350.2l-22.6-12.7c-1.9-1-4.3-0.6-5.6,1l-5,6.1c-1,1.2-2.7,1.7-4.2,1.1l-38.4-14.8
				c-7.5-2.9-11.7,8-4.4,10.8l35.8,13.8c1.4,0.5,2.4,1.9,2.4,3.4v2.7c0,2-1.7,3.7-3.7,3.7c0,0,0,0,0,0h-42c-7.9,0-7.9,11.6,0,11.6
				h42c2,0,3.7,1.7,3.7,3.7c0,0,0,0,0,0v1.6c0,2-1.7,3.7-3.7,3.7c0,0,0,0,0,0h-6.5c-2.3-0.1-4.3,1.8-4.3,4.1
				c-0.1,2.3,1.8,4.3,4.1,4.3c0.1,0,0.2,0,0.3,0h6.5c2,0,3.7,1.7,3.7,3.7c0,0,0,0,0,0v1.6c0,2-1.7,3.7-3.7,3.7c0,0,0,0,0,0
				c-2.3-0.1-4.3,1.8-4.3,4.1c-0.1,2.3,1.8,4.3,4.1,4.3c0.1,0,0.2,0,0.3,0h16.1c0.3,0,0.7,0,1-0.1l27.5-6.3c1.9-0.4,3.3-2.1,3.4-4.1
				v-47.5C-332.2-348.1-333-349.5-334.4-350.2z"/>
			<path class="st3" d="M-412.7-369.9c-5.9,0-8.4,8.8-2,11.3l35.8,13.8c1.4,0.5,2.4,1.9,2.4,3.4v2.7c0,2-1.7,3.7-3.7,3.7h-42
				c-7.9,0-7.9,11.6,0,11.6h42c2,0,3.7,1.7,3.7,3.7v1.6c0,2-1.7,3.7-3.7,3.7h-6.5c-5.8,0-5.8,8.4,0,8.4h6.5c2,0,3.7,1.7,3.7,3.7v1.6
				c0,2-1.7,3.7-3.7,3.7c-5.8,0-5.8,8.4,0,8.4v0h16.1c0.3,0,0.7,0,1-0.1l27.5-6.3c1.9-0.4,3.3-2.1,3.4-4.1v-47.5
				c0-1.5-0.8-2.9-2.2-3.6l-22.6-12.7c-0.7-0.4-1.4-0.6-2.2-0.6c-1.3,0-2.6,0.6-3.5,1.6l-5,6.1c-0.7,0.9-1.8,1.4-2.9,1.4
				c-0.4,0-0.9-0.1-1.3-0.2l-38.4-14.8C-411.1-369.7-412-369.9-412.7-369.9 M-412.7-376.9c1.7,0,3.3,0.3,5,1l36.2,13.9l3.5-4.3
				c2.3-2.7,5.5-4.2,8.9-4.2c1.9,0,3.9,0.5,5.6,1.4l22.6,12.7c3.5,1.9,5.7,5.6,5.8,9.7l0,47.5c-0.1,5.4-3.7,9.9-8.9,11l-27.3,6.3
				c-0.9,0.2-1.7,0.3-2.6,0.3h-16.1c0,0,0,0,0,0c-4.2,0-7.8-2.1-9.8-5.5c-2-3.5-2-7.9,0-11.4c0.2-0.3,0.3-0.6,0.5-0.8
				c-4.9-1.2-8.5-5.6-8.5-10.9c0-2.2,0.6-4.4,1.8-6.2h-26c-3.8,0-7.2-1.5-9.6-4.1c-2.1-2.3-3.3-5.4-3.3-8.7c0-7.3,5.6-12.8,13-12.8
				h31.1l-26.2-10.1c-6-2.3-9.2-8-8-14.1C-424.1-372.4-418.8-376.9-412.7-376.9z"/>
		</g>
		<g class="st4">
			<path class="st3" d="M-7517.6-3044.7c-1-0.6-1.5-1.5-1.5-2.6c0-0.6,0.2-1.2,0.5-1.6c0.4-0.4,0.8-0.6,1.3-0.6
				c0.5,0,1.3,0.3,2.3,0.8c1,0.5,2,0.8,2.8,1.1c0.8,0.3,1.9,0.4,3.2,0.4c1.3,0,2.4-0.2,3.1-0.7c0.8-0.4,1.1-1.1,1.1-1.9
				c0-0.5-0.2-1-0.5-1.3c-0.3-0.3-0.8-0.6-1.6-0.9c-0.8-0.3-2-0.6-3.6-0.9c-2.8-0.6-4.9-1.4-6.1-2.4c-1.2-1.1-1.8-2.5-1.8-4.4
				c0-1.4,0.4-2.7,1.2-3.8c0.8-1.1,2-2,3.4-2.6c1.5-0.6,3.1-0.9,5-0.9c1.3,0,2.6,0.2,3.9,0.5s2.4,0.8,3.4,1.5c1,0.6,1.5,1.5,1.5,2.5
				c0,0.6-0.2,1.2-0.5,1.6c-0.4,0.4-0.8,0.6-1.3,0.6c-0.4,0-0.7-0.1-1-0.2c-0.3-0.1-0.8-0.4-1.3-0.6c-0.9-0.5-1.7-0.8-2.4-1.1
				c-0.7-0.2-1.5-0.4-2.5-0.4c-1.2,0-2.1,0.2-2.8,0.7c-0.7,0.5-1,1.1-1,2c0,0.8,0.4,1.4,1.1,1.8c0.7,0.4,2.1,0.8,4.1,1.2
				c2.1,0.4,3.8,1,5,1.5c1.2,0.6,2.1,1.3,2.6,2.2c0.5,0.9,0.8,2,0.8,3.3c0,2.2-0.9,3.9-2.7,5.2c-1.8,1.3-4.2,2-7.2,2
				C-7512.6-3042.6-7515.4-3043.3-7517.6-3044.7z"/>
			<path class="st3" d="M-7490.1-3044.1c-1.8-1-3.1-2.4-4.1-4.2s-1.4-4-1.4-6.4c0-2.4,0.5-4.6,1.5-6.5c1-1.9,2.4-3.3,4.2-4.3
				s3.9-1.5,6.3-1.5c1.2,0,2.5,0.2,3.8,0.5c1.3,0.4,2.4,0.8,3.3,1.4c1,0.7,1.5,1.5,1.5,2.5c0,0.7-0.2,1.3-0.5,1.7
				c-0.3,0.4-0.8,0.6-1.3,0.6c-0.4,0-0.7-0.1-1.1-0.2s-0.8-0.4-1.2-0.6c-0.7-0.4-1.4-0.7-2-1c-0.6-0.2-1.4-0.4-2.2-0.4
				c-2,0-3.5,0.6-4.6,1.9c-1.1,1.3-1.6,3.2-1.6,5.6c0,2.4,0.5,4.2,1.6,5.5c1.1,1.3,2.6,1.9,4.6,1.9c0.8,0,1.5-0.1,2.1-0.4
				c0.6-0.2,1.3-0.6,2.1-1c0.5-0.3,0.9-0.5,1.2-0.6c0.4-0.1,0.7-0.2,1.1-0.2c0.5,0,0.9,0.2,1.3,0.7c0.4,0.4,0.5,1,0.5,1.7
				c0,0.5-0.1,1-0.4,1.4c-0.2,0.4-0.6,0.8-1.2,1.1c-1,0.6-2.1,1.1-3.5,1.5c-1.3,0.4-2.7,0.6-4,0.6
				C-7486.2-3042.6-7488.3-3043.1-7490.1-3044.1z"/>
			<path class="st3" d="M-7470.5-3072.1c-0.6-0.6-1-1.4-1-2.3s0.3-1.7,1-2.3c0.6-0.6,1.5-0.9,2.6-0.9c1.1,0,1.9,0.3,2.6,0.9
				c0.7,0.6,1,1.3,1,2.3s-0.3,1.7-1,2.3c-0.6,0.6-1.5,0.9-2.6,0.9C-7469-3071.2-7469.9-3071.5-7470.5-3072.1z M-7470.1-3043.5
				c-0.6-0.5-0.8-1.2-0.8-2.1v-18.5c0-0.9,0.3-1.6,0.8-2.1c0.6-0.5,1.3-0.7,2.1-0.7c0.9,0,1.6,0.2,2.2,0.7c0.6,0.5,0.9,1.2,0.9,2.1
				v18.5c0,0.9-0.3,1.6-0.9,2.1c-0.6,0.5-1.3,0.7-2.2,0.7C-7468.8-3042.7-7469.5-3043-7470.1-3043.5z"/>
			<path class="st3" d="M-7458.7-3044.7c-1-0.6-1.5-1.5-1.5-2.6c0-0.6,0.2-1.2,0.5-1.6c0.4-0.4,0.8-0.6,1.3-0.6
				c0.5,0,1.3,0.3,2.3,0.8c1,0.5,2,0.8,2.8,1.1c0.8,0.3,1.9,0.4,3.2,0.4c1.3,0,2.4-0.2,3.1-0.7c0.8-0.4,1.1-1.1,1.1-1.9
				c0-0.5-0.2-1-0.5-1.3c-0.3-0.3-0.8-0.6-1.6-0.9c-0.8-0.3-2-0.6-3.6-0.9c-2.8-0.6-4.9-1.4-6.1-2.4c-1.2-1.1-1.8-2.5-1.8-4.4
				c0-1.4,0.4-2.7,1.2-3.8c0.8-1.1,2-2,3.4-2.6c1.5-0.6,3.1-0.9,5-0.9c1.3,0,2.6,0.2,3.9,0.5s2.4,0.8,3.4,1.5c1,0.6,1.5,1.5,1.5,2.5
				c0,0.6-0.2,1.2-0.5,1.6c-0.4,0.4-0.8,0.6-1.3,0.6c-0.4,0-0.7-0.1-1-0.2c-0.3-0.1-0.8-0.4-1.3-0.6c-0.9-0.5-1.7-0.8-2.4-1.1
				c-0.7-0.2-1.5-0.4-2.5-0.4c-1.2,0-2.1,0.2-2.8,0.7c-0.7,0.5-1,1.1-1,2c0,0.8,0.4,1.4,1.1,1.8c0.7,0.4,2.1,0.8,4.1,1.2
				c2.1,0.4,3.8,1,5,1.5c1.2,0.6,2.1,1.3,2.6,2.2s0.8,2,0.8,3.3c0,2.2-0.9,3.9-2.7,5.2c-1.8,1.3-4.2,2-7.2,2
				C-7453.7-3042.6-7456.5-3043.3-7458.7-3044.7z"/>
			<path class="st3" d="M-7435.4-3044.7c-1-0.6-1.5-1.5-1.5-2.6c0-0.6,0.2-1.2,0.5-1.6c0.4-0.4,0.8-0.6,1.3-0.6
				c0.5,0,1.3,0.3,2.3,0.8c1,0.5,2,0.8,2.8,1.1s1.9,0.4,3.2,0.4c1.3,0,2.4-0.2,3.1-0.7s1.1-1.1,1.1-1.9c0-0.5-0.2-1-0.5-1.3
				c-0.3-0.3-0.8-0.6-1.6-0.9c-0.8-0.3-2-0.6-3.6-0.9c-2.8-0.6-4.9-1.4-6.1-2.4c-1.2-1.1-1.8-2.5-1.8-4.4c0-1.4,0.4-2.7,1.2-3.8
				s2-2,3.4-2.6c1.5-0.6,3.1-0.9,5-0.9c1.3,0,2.6,0.2,3.9,0.5s2.4,0.8,3.4,1.5c1,0.6,1.5,1.5,1.5,2.5c0,0.6-0.2,1.2-0.5,1.6
				c-0.4,0.4-0.8,0.6-1.3,0.6c-0.4,0-0.7-0.1-1-0.2c-0.3-0.1-0.8-0.4-1.3-0.6c-0.9-0.5-1.7-0.8-2.4-1.1c-0.7-0.2-1.5-0.4-2.5-0.4
				c-1.2,0-2.1,0.2-2.8,0.7c-0.7,0.5-1,1.1-1,2c0,0.8,0.4,1.4,1.1,1.8c0.7,0.4,2.1,0.8,4.1,1.2c2.1,0.4,3.8,1,5,1.5s2.1,1.3,2.6,2.2
				s0.8,2,0.8,3.3c0,2.2-0.9,3.9-2.7,5.2c-1.8,1.3-4.2,2-7.2,2C-7430.4-3042.6-7433.2-3043.3-7435.4-3044.7z"/>
			<path class="st3" d="M-7407.8-3044.1c-1.8-1-3.2-2.4-4.2-4.3c-1-1.9-1.5-4-1.5-6.5c0-2.5,0.5-4.6,1.5-6.5s2.4-3.3,4.2-4.2
				c1.8-1,3.9-1.5,6.3-1.5c2.4,0,4.5,0.5,6.3,1.5c1.8,1,3.2,2.4,4.2,4.2c1,1.8,1.5,4,1.5,6.5c0,2.5-0.5,4.6-1.5,6.5
				c-1,1.9-2.4,3.3-4.2,4.3c-1.8,1-3.9,1.5-6.3,1.5C-7403.8-3042.6-7405.9-3043.1-7407.8-3044.1z M-7397-3049.2
				c1-1.3,1.5-3.2,1.5-5.7c0-2.5-0.5-4.3-1.5-5.6c-1-1.3-2.5-1.9-4.4-1.9c-1.9,0-3.4,0.6-4.4,1.9c-1,1.3-1.6,3.2-1.6,5.6
				c0,2.5,0.5,4.4,1.5,5.7c1,1.3,2.5,1.9,4.4,1.9C-7399.5-3047.3-7398.1-3047.9-7397-3049.2z"/>
			<path class="st3" d="M-7369.5-3066.4c0.5,0.4,0.7,1,0.7,1.9c0,0.9-0.2,1.5-0.6,1.9s-1.2,0.7-2.3,0.8l-1.4,0.1
				c-1.9,0.2-3.3,0.8-4.2,1.9c-0.9,1.1-1.3,2.4-1.3,4.1v10.1c0,0.9-0.3,1.6-0.9,2.1c-0.6,0.5-1.3,0.7-2.2,0.7
				c-0.9,0-1.6-0.2-2.1-0.7s-0.8-1.2-0.8-2.1v-18.6c0-0.9,0.3-1.6,0.8-2.1c0.6-0.5,1.3-0.7,2.1-0.7s1.5,0.2,2,0.7
				c0.5,0.5,0.8,1.1,0.8,2v1.9c0.6-1.4,1.5-2.5,2.7-3.3c1.2-0.8,2.5-1.2,4-1.3l0.7,0C-7370.6-3067-7370-3066.8-7369.5-3066.4z"/>
		</g>
	</g>
</g>
</svg>
