<?xml version="1.0" encoding="utf-8"?>
<!-- Generator: Adobe Illustrator 24.2.3, SVG Export Plug-In . SVG Version: 6.00 Build 0)  -->
<svg version="1.1" id="Layer_1" xmlns="http://www.w3.org/2000/svg" xmlns:xlink="http://www.w3.org/1999/xlink" x="0px" y="0px"
	 viewBox="0 0 246 246" style="enable-background:new 0 0 246 246;" xml:space="preserve">
<style type="text/css">
	.st0{opacity:0;fill:url(#Ellipse_295_2_);}
	.st1{fill:url(#Ellipse_295_3_);}
	.st2{fill:none;}
	.st3{fill:#FFFFFF;}
	.st4{enable-background:new    ;}
</style>
<g>
	
		<linearGradient id="Ellipse_295_2_" gradientUnits="userSpaceOnUse" x1="-172.7927" y1="542.6784" x2="-172.7927" y2="541.6784" gradientTransform="matrix(246 0 0 -246 42630 133498.875)">
		<stop  offset="0" style="stop-color:#3C64B1"/>
		<stop  offset="1" style="stop-color:#537BC9"/>
	</linearGradient>
	<circle id="Ellipse_295_1_" class="st0" cx="123" cy="123" r="123"/>
	
		<linearGradient id="Ellipse_295_3_" gradientUnits="userSpaceOnUse" x1="-172.7927" y1="542.6403" x2="-172.7927" y2="541.7164" gradientTransform="matrix(246 0 0 -246 42630 133498.875)">
		<stop  offset="0" style="stop-color:#3C64B1"/>
		<stop  offset="1" style="stop-color:#537BC9"/>
	</linearGradient>
	<circle id="Ellipse_295" class="st1" cx="123" cy="123" r="113.6"/>
	<g id="Path_343" transform="translate(-7102.311 -2818.41)">
		<path class="st2" d="M7262.3,2890.6c0.1-2.3-1.8-4.3-4.1-4.4c-2.3-0.1-4.3,1.8-4.4,4.1c0,0.1,0,0.3,0,0.4v16.8
			c0,2.5-2,4.5-4.5,4.5l0,0c-2.5,0-4.5-2-4.5-4.5l0,0v-34.8c0-5.9-8.4-6.1-8.4-0.2v34.9c0,2.5-2,4.5-4.5,4.5l0,0l0,0
			c-2.5,0-4.5-2-4.5-4.5l0,0v-42.7c0-5.9-8.4-6.1-8.4-0.2v42.8c0,2.5-2,4.5-4.5,4.5l0,0l0,0c-2.5,0-4.5-2-4.5-4.5l0,0V2873
			c0-5.9-8.4-6.1-8.4-0.2v47.6c0,2-1.7,3.7-3.7,3.7c-1.2,0-2.3-0.6-3-1.5l-6.3-8.8c-3.3-4.7-10.1,0.5-6.8,5.2l18.9,27.4
			c4.3,6.2,11.4,9.9,19,9.9h27.4c4.6,0,8.6-3.2,9.6-7.6l4.5-19.7c0.6-2.6,0.9-5.3,0.9-8l0,0L7262.3,2890.6z"/>
		<path class="st3" d="M7223.2,2860.4c-2.1,0-4.1,1.4-4.1,4.3v42.8c0,2.5-2,4.5-4.5,4.5s-4.5-2-4.5-4.5V2873c0-3-2.2-4.5-4.3-4.5
			c-2.1,0-4.1,1.4-4.1,4.3v47.6c0,2.3-1.8,3.7-3.7,3.7c-1.1,0-2.2-0.5-3-1.6l-6.3-8.8c-0.9-1.3-2.1-1.8-3.3-1.8c-3,0-5.9,3.7-3.5,7
			l18.9,27.4c4.3,6.2,11.4,9.9,19,9.9h27.4c4.6,0,8.6-3.2,9.6-7.6l4.5-19.7c0.6-2.6,0.9-5.3,0.9-8h0v-30.3c0-2.9-2.1-4.3-4.2-4.3
			c-2.1,0-4.2,1.5-4.2,4.5v16.8c0,2.5-2,4.5-4.5,4.5c-2.5,0-4.5-2-4.5-4.5v-34.8c0-3-2.2-4.5-4.3-4.5c-2.1,0-4.1,1.4-4.1,4.3v34.9
			c0,2.5-2,4.5-4.5,4.5h0c-2.5,0-4.5-2-4.5-4.5v-42.7C7227.5,2861.9,7225.3,2860.4,7223.2,2860.4 M7223.2,2853.4
			c5.7,0,10.4,4.1,11.2,9.7c1.8-1.2,3.9-1.8,6.2-1.8c6.3,0,11.3,5.1,11.3,11.5v8.3c1.8-1.1,3.9-1.8,6.2-1.8c6.3,0,11.2,5,11.2,11.3
			v30.3c0,3.2-0.4,6.5-1.1,9.6l-4.5,19.7c-1.8,7.7-8.5,13.1-16.4,13.1h-27.4c-9.9,0-19.1-4.8-24.7-13l-18.9-27.4
			c-2.5-3.5-2.9-7.9-0.9-11.7c2-3.8,6-6.3,10.2-6.3c3.5,0,6.8,1.7,9,4.8l0.3,0.4v-37.3c0-6.5,4.8-11.3,11.1-11.3
			c2.4,0,4.5,0.7,6.3,1.9C7212.7,2857.6,7217.3,2853.4,7223.2,2853.4z"/>
	</g>
	<g class="st4">
		<path class="st3" d="M81.3,170.5c1.6,1,2.8,2.5,3.7,4.3c0.9,1.9,1.3,4,1.3,6.5c0,2.4-0.4,4.6-1.3,6.4c-0.9,1.8-2.1,3.2-3.7,4.2
			c-1.6,1-3.4,1.5-5.4,1.5c-1.7,0-3.2-0.4-4.5-1.1c-1.3-0.7-2.3-1.7-3-2.9v9.8c0,0.8-0.3,1.5-0.8,2c-0.5,0.5-1.3,0.7-2.2,0.7
			c-0.9,0-1.6-0.3-2.2-0.8c-0.6-0.5-0.8-1.2-0.8-2v-27.2c0-0.9,0.3-1.6,0.8-2.1c0.5-0.5,1.2-0.8,2.1-0.8c0.9,0,1.6,0.3,2.2,0.8
			c0.5,0.5,0.8,1.2,0.8,2.1v1.2c0.7-1.3,1.7-2.3,3-3c1.3-0.7,2.8-1.1,4.5-1.1C77.9,169,79.7,169.5,81.3,170.5z M78.7,186.8
			c1.1-1.3,1.6-3.1,1.6-5.5c0-2.4-0.5-4.3-1.6-5.7s-2.5-2-4.4-2c-1.9,0-3.4,0.7-4.4,2c-1,1.3-1.6,3.2-1.6,5.6c0,2.4,0.5,4.3,1.6,5.6
			c1,1.3,2.5,2,4.4,2C76.2,188.7,77.6,188.1,78.7,186.8z"/>
		<path class="st3" d="M108.7,171.4c1.6,1.6,2.4,4.1,2.4,7.4v11.7c0,0.9-0.3,1.5-0.8,2c-0.5,0.5-1.2,0.7-2.1,0.7
			c-0.8,0-1.5-0.3-2-0.8c-0.5-0.5-0.8-1.2-0.8-2v-1.1c-0.5,1.2-1.4,2.2-2.6,2.9c-1.2,0.7-2.5,1.1-4.1,1.1c-1.6,0-3-0.3-4.3-1
			c-1.3-0.6-2.3-1.5-3-2.6c-0.7-1.1-1.1-2.4-1.1-3.7c0-1.7,0.4-3.1,1.3-4.1c0.9-1,2.3-1.7,4.3-2.2c2-0.4,4.7-0.7,8.2-0.7h1.2V178
			c0-1.6-0.3-2.7-1-3.4c-0.7-0.7-1.8-1.1-3.3-1.1c-0.9,0-1.9,0.1-2.8,0.4c-1,0.3-2.1,0.7-3.4,1.2c-0.8,0.4-1.4,0.6-1.8,0.6
			c-0.6,0-1-0.2-1.4-0.6c-0.4-0.4-0.6-1-0.6-1.6c0-0.5,0.1-1,0.4-1.4c0.3-0.4,0.7-0.8,1.4-1.1c1.1-0.6,2.5-1.1,4-1.4
			c1.6-0.4,3.1-0.5,4.6-0.5C104.7,169,107.1,169.8,108.7,171.4z M103.8,187.5c1-1.1,1.5-2.5,1.5-4.2v-1h-0.9c-2.1,0-3.8,0.1-5,0.3
			c-1.2,0.2-2,0.5-2.5,1c-0.5,0.5-0.8,1.1-0.8,2c0,1,0.4,1.9,1.1,2.5c0.7,0.7,1.6,1,2.7,1C101.5,189.1,102.8,188.5,103.8,187.5z"/>
		<path class="st3" d="M136,170.5c1.6,1,2.8,2.5,3.7,4.3s1.3,4,1.3,6.5c0,2.4-0.4,4.6-1.3,6.4s-2.1,3.2-3.7,4.2
			c-1.6,1-3.4,1.5-5.4,1.5c-1.7,0-3.2-0.4-4.5-1.1c-1.3-0.7-2.3-1.7-3-2.9v9.8c0,0.8-0.3,1.5-0.8,2c-0.5,0.5-1.3,0.7-2.2,0.7
			c-0.9,0-1.6-0.3-2.2-0.8c-0.6-0.5-0.8-1.2-0.8-2v-27.2c0-0.9,0.3-1.6,0.8-2.1c0.5-0.5,1.2-0.8,2.1-0.8c0.9,0,1.6,0.3,2.2,0.8
			c0.5,0.5,0.8,1.2,0.8,2.1v1.2c0.7-1.3,1.7-2.3,3-3c1.3-0.7,2.8-1.1,4.5-1.1C132.6,169,134.4,169.5,136,170.5z M133.5,186.8
			c1.1-1.3,1.6-3.1,1.6-5.5c0-2.4-0.5-4.3-1.6-5.7c-1.1-1.3-2.5-2-4.4-2c-1.9,0-3.4,0.7-4.4,2c-1,1.3-1.6,3.2-1.6,5.6
			c0,2.4,0.5,4.3,1.6,5.6c1,1.3,2.5,2,4.4,2C130.9,188.7,132.4,188.1,133.5,186.8z"/>
		<path class="st3" d="M165.9,187.2c0.3,0.4,0.5,1,0.5,1.7c0,1-0.6,1.8-1.8,2.5c-1.1,0.6-2.3,1.1-3.7,1.5s-2.7,0.6-3.9,0.6
			c-3.8,0-6.8-1.1-9-3.3c-2.2-2.2-3.3-5.2-3.3-8.9c0-2.4,0.5-4.5,1.4-6.4c1-1.9,2.3-3.3,4.1-4.3s3.7-1.5,5.9-1.5
			c2.1,0,4,0.5,5.5,1.4c1.6,0.9,2.8,2.2,3.6,3.9s1.3,3.7,1.3,6c0,1.4-0.6,2.1-1.8,2.1h-14.2c0.2,2.2,0.8,3.8,1.9,4.9
			c1.1,1,2.6,1.6,4.6,1.6c1,0,1.9-0.1,2.7-0.4c0.8-0.3,1.7-0.6,2.7-1.1c1-0.5,1.7-0.8,2.1-0.8C165.1,186.6,165.6,186.8,165.9,187.2z
			 M152.4,174.7c-1,1-1.6,2.5-1.8,4.4h10.8c-0.1-2-0.5-3.4-1.4-4.4c-0.9-1-2.1-1.5-3.7-1.5C154.6,173.2,153.3,173.7,152.4,174.7z"/>
		<path class="st3" d="M186.6,169.6c0.5,0.4,0.7,1,0.7,1.9c0,0.9-0.2,1.5-0.6,1.9c-0.4,0.4-1.2,0.7-2.3,0.8l-1.4,0.1
			c-1.9,0.2-3.3,0.8-4.2,1.9s-1.3,2.4-1.3,4.1v10.1c0,0.9-0.3,1.6-0.9,2.1s-1.3,0.7-2.2,0.7s-1.6-0.2-2.1-0.7
			c-0.6-0.5-0.8-1.2-0.8-2.1v-18.6c0-0.9,0.3-1.6,0.8-2.1c0.6-0.5,1.3-0.7,2.1-0.7c0.8,0,1.5,0.2,2,0.7s0.8,1.1,0.8,2v1.9
			c0.6-1.4,1.5-2.5,2.7-3.3c1.2-0.8,2.5-1.2,4-1.3l0.7,0C185.4,169,186.1,169.2,186.6,169.6z"/>
	</g>
</g>
</svg>
