<?xml version="1.0" encoding="utf-8"?>
<!-- Generator: Adobe Illustrator 24.2.3, SVG Export Plug-In . SVG Version: 6.00 Build 0)  -->
<svg version="1.1" id="Layer_1" xmlns="http://www.w3.org/2000/svg" xmlns:xlink="http://www.w3.org/1999/xlink" x="0px" y="0px"
	 viewBox="0 0 35.2 35" style="enable-background:new 0 0 35.2 35;" xml:space="preserve">
<style type="text/css">
	.st0{fill:#F4A91A;}
</style>
<path id="robot-solid" class="st0" d="M8,16h1.2v7H8c-0.6,0-1.2-0.5-1.2-1.2c0,0,0,0,0,0v-4.7C6.8,16.5,7.4,16,8,16C8,16,8,16,8,16z
	 M26.8,14.2v10c0,1.3-1.1,2.3-2.3,2.3H12.7c-1.3,0-2.3-1.1-2.3-2.3v-10c0-1.6,1.3-2.9,2.9-2.9c0,0,0,0,0,0h4.1V8.9
	c0-0.6,0.5-1.2,1.2-1.2s1.2,0.5,1.2,1.2v2.3h4.1C25.4,11.3,26.8,12.6,26.8,14.2C26.8,14.2,26.8,14.2,26.8,14.2z M16.5,17.1
	c0-0.8-0.7-1.5-1.5-1.5s-1.5,0.7-1.5,1.5s0.7,1.5,1.5,1.5S16.5,17.9,16.5,17.1z M16.2,21.8h-2.3V23h2.3V21.8z M19.7,21.8h-2.3V23
	h2.3V21.8z M23.5,17.1c0-0.8-0.7-1.5-1.5-1.5c-0.8,0-1.5,0.7-1.5,1.5s0.7,1.5,1.5,1.5C22.9,18.6,23.5,17.9,23.5,17.1z M23.2,21.8
	h-2.3V23h2.3V21.8z M30.3,17.1v4.7c0,0.6-0.5,1.2-1.2,1.2c0,0,0,0,0,0h-1.2v-7h1.2C29.7,16,30.3,16.5,30.3,17.1
	C30.3,17.1,30.3,17.1,30.3,17.1z"/>
</svg>
