<svg xmlns="http://www.w3.org/2000/svg" xmlns:xlink="http://www.w3.org/1999/xlink" width="156" height="156" viewBox="0 0 156 156">
  <defs>
    <linearGradient id="linear-gradient" x1="0.5" x2="0.5" y2="1" gradientUnits="objectBoundingBox">
      <stop offset="0" stop-color="#3c64b1"/>
      <stop offset="1" stop-color="#537bc9"/>
    </linearGradient>
  </defs>
  <g id="Group_4432" data-name="Group 4432" transform="translate(8067 3437)">
    <circle id="Ellipse_287" data-name="Ellipse 287" cx="78" cy="78" r="78" transform="translate(-8067 -3437)" fill="url(#linear-gradient)"/>
    <g id="Path_332" data-name="Path 332" transform="translate(-7823.674 -3783.859)" fill="none">
      <path d="M-133.51,402.4l-5.086,21.358c-.9,3.777-6.517,2.439-5.754-1.275l5.854-28.54c1.517-7.4-8.883-9.243-10.279-2.454l-6.519,31.781a3.448,3.448,0,0,1-2.505,2.631,3.445,3.445,0,0,1-4.2-2.466l-9.7-37.742c-1.73-6.724-11.971-4.156-10.227,2.632l8.7,33.848c.988,3.839-4.8,5.519-5.94,1.643l-6.428-21.693c-1.983-6.7-12.12-3.743-10.12,2.992l7.381,24.924a50.656,50.656,0,0,1,2.088,14.388,1.646,1.646,0,0,1-.445,1.122,1.641,1.641,0,0,1-2.32.073l-10.485-9.866c-5.083-4.8-12.315,2.911-7.235,7.693L-188,461.089a21.388,21.388,0,0,0,6.782,4.353A22.219,22.219,0,0,0-173,467.035h22.04a16.3,16.3,0,0,0,15.906-12.563l11.817-49.622C-121.625,398.085-131.877,395.566-133.51,402.4Z" stroke="none"/>
      <path d="M -176.6687164306641 381.764404296875 C -179.7896728515625 381.764404296875 -182.9693298339844 384.305419921875 -181.934814453125 388.3312683105469 L -173.2342529296875 422.17919921875 C -172.6387481689453 424.4941711425781 -174.5054931640625 426.0241394042969 -176.3322601318359 426.0241394042969 C -177.5351409912109 426.0241394042969 -178.7205963134766 425.3609619140625 -179.1746368408203 423.82177734375 L -185.6026153564453 402.1290893554688 C -186.3840789794922 399.4888916015625 -188.4331207275391 398.3483276367188 -190.5058135986328 398.3483276367188 C -193.6915740966797 398.3483276367188 -196.9340667724609 401.041015625 -195.7222595214844 405.12109375 L -188.3409729003906 430.044921875 C -186.9572143554688 434.7159729003906 -186.25341796875 439.5616149902344 -186.25341796875 444.4332885742188 C -186.2544555664062 444.8501892089844 -186.4135131835938 445.2514343261719 -186.6983642578125 445.5550231933594 C -187.0213928222656 445.8991394042969 -187.4579315185547 446.0729064941406 -187.8953552246094 446.0729064941406 C -188.2984008789062 446.0729064941406 -188.7022094726562 445.9254150390625 -189.0187835693359 445.6278076171875 L -199.5033416748047 435.7618103027344 C -200.6328735351562 434.696044921875 -201.8692779541016 434.24755859375 -203.0524139404297 434.24755859375 C -207.1932525634766 434.24755859375 -210.6896209716797 439.7355041503906 -206.7380676269531 443.4549865722656 L -188.0010070800781 461.0890197753906 C -186.0371704101562 462.9561462402344 -183.7354431152344 464.4334411621094 -181.2185363769531 465.4418640136719 C -178.6059722900391 466.48876953125 -175.8177185058594 467.0283508300781 -173.0024261474609 467.0345764160156 L -150.9625091552734 467.0345764160156 C -150.9486389160156 467.0346069335938 -150.9334259033203 467.0346374511719 -150.9195556640625 467.0346374511719 C -143.3592529296875 467.0346374511719 -136.7903289794922 461.8344116210938 -135.0563354492188 454.4718322753906 L -123.2389831542969 404.8497619628906 C -122.2898406982422 400.8703308105469 -125.447265625 398.3601379394531 -128.5401916503906 398.3597717285156 C -130.7050476074219 398.3595275878906 -132.8379364013672 399.5888366699219 -133.5104217529297 402.4046020507812 L -138.5962371826172 423.7624816894531 C -138.9702301025391 425.3314514160156 -140.1582794189453 426.017822265625 -141.3646850585938 426.017822265625 C -143.0624237060547 426.017822265625 -144.7966156005859 424.6588439941406 -144.3505249023438 422.4879760742188 L -138.4964294433594 393.9483337402344 C -137.6249847412109 389.6980590820312 -140.6870880126953 387.2803955078125 -143.7150726318359 387.2803955078125 C -145.9575042724609 387.2803955078125 -148.1810913085938 388.6059265136719 -148.775146484375 391.4948120117188 L -155.2945861816406 423.2759704589844 C -155.5628204345703 424.5578308105469 -156.5327911376953 425.57666015625 -157.8000793457031 425.9072570800781 C -158.0914611816406 425.9832763671875 -158.3839416503906 426.0196228027344 -158.6716918945312 426.0196228027344 C -160.2020721435547 426.0196228027344 -161.5998382568359 424.991943359375 -162.0032653808594 423.4412841796875 L -171.7080688476562 385.698974609375 C -172.4121398925781 382.9622802734375 -174.5268249511719 381.764404296875 -176.6687164306641 381.764404296875 M -176.6687164306641 374.764404296875 C -171.0609436035156 374.764404296875 -166.3430633544922 378.4577941894531 -164.9288177490234 383.9548950195312 L -159.0578765869141 406.7871398925781 L -155.6323699951172 390.0881652832031 C -154.4257659912109 384.2204895019531 -149.6368408203125 380.2803955078125 -143.7150573730469 380.2803955078125 C -139.9674835205078 380.2803955078125 -136.3520355224609 381.9696655273438 -134.0437469482422 384.7992553710938 C -132.4392700195312 386.7660827636719 -131.5315856933594 389.1335754394531 -131.3704833984375 391.6828002929688 C -130.4638214111328 391.4707336425781 -129.5162658691406 391.3597717285156 -128.5408630371094 391.3597717285156 C -124.6584777832031 391.3602294921875 -120.9426879882812 393.1320190429688 -118.6002349853516 396.0992431640625 C -116.3000183105469 399.0130004882812 -115.5292816162109 402.6974182128906 -116.4299926757812 406.4738159179688 L -128.2467651367188 456.093505859375 C -130.7329559326172 466.6499938964844 -140.0579833984375 474.0346374511719 -150.9195556640625 474.0346374511719 L -173.0024261474609 474.0345764160156 C -176.7386169433594 474.0263366699219 -180.3737640380859 473.3214721679688 -183.8223114013672 471.9395751953125 C -187.1769714355469 470.5955200195312 -190.2057800292969 468.6516418457031 -192.8242645263672 466.162109375 L -211.5355224609375 448.552490234375 C -215.2830810546875 445.0250244140625 -216.4608612060547 439.9342956542969 -214.6096038818359 435.2666320800781 C -212.7073059082031 430.4701538085938 -208.0628204345703 427.24755859375 -203.0524291992188 427.24755859375 C -200.4296722412109 427.24755859375 -197.8669281005859 428.14794921875 -195.7121734619141 429.8062438964844 L -202.4341125488281 407.1088562011719 C -203.5623779296875 403.3099975585938 -202.9127807617188 399.3891906738281 -200.6502990722656 396.3570556640625 C -198.3100738525391 393.2207336425781 -194.5177459716797 391.3483276367188 -190.5058288574219 391.3483276367188 C -189.7649841308594 391.3483276367188 -189.0413208007812 391.4114379882812 -188.3391265869141 391.5339965820312 L -188.7144165039062 390.0739440917969 C -189.6929779052734 386.2658386230469 -188.9676055908203 382.5387268066406 -186.6720275878906 379.5786743164062 C -184.3341827392578 376.5641174316406 -180.5946197509766 374.764404296875 -176.6687164306641 374.764404296875 Z" stroke="none" fill="#fff"/>
    </g>
  </g>
</svg>
