<svg xmlns="http://www.w3.org/2000/svg" xmlns:xlink="http://www.w3.org/1999/xlink" width="156" height="156" viewBox="0 0 156 156">
  <defs>
    <linearGradient id="linear-gradient" x1="0.5" x2="0.5" y2="1" gradientUnits="objectBoundingBox">
      <stop offset="0" stop-color="#3c64b1"/>
      <stop offset="1" stop-color="#537bc9"/>
    </linearGradient>
  </defs>
  <g id="Group_4440" data-name="Group 4440" transform="translate(7241 3437)">
    <circle id="Ellipse_288" data-name="Ellipse 288" cx="78" cy="78" r="78" transform="translate(-7241 -3437)" fill="url(#linear-gradient)"/>
    <g id="Path_333" data-name="Path 333" transform="translate(-6454.214 -3025.252)" fill="none">
      <path d="M-692.381-367.58a4.9,4.9,0,0,0-4.122-2.239h-60.154a1.638,1.638,0,0,0-1.637,1.637v1.638A6.555,6.555,0,0,0-751.744-360h43.689a7.383,7.383,0,0,1,2.619.483A7.371,7.371,0,0,1-701.173-350l-5.024,13.156a9.879,9.879,0,0,1-9.177,6.318h-23.272a8.2,8.2,0,0,0-8.186,8.186A1.639,1.639,0,0,0-745.2-320.7h26.925a14.642,14.642,0,0,1,5.34,1l20.415,7.938a9.762,9.762,0,0,1,6.263,9.156v1.525a3.3,3.3,0,0,0,3.3,3.3h19.593a3.3,3.3,0,0,0,3.3-3.3v-12.288a14.71,14.71,0,0,0-2.372-8.017Z" stroke="none"/>
      <path d="M -696.4926147460938 -369.8190307617188 C -696.4959716796875 -369.8190307617188 -696.4991455078125 -369.8190307617188 -696.5025024414062 -369.8190307617188 L -756.6563720703125 -369.8190307617188 C -757.5599975585938 -369.8179016113281 -758.2930908203125 -369.0860290527344 -758.2930908203125 -368.1824035644531 L -758.2930908203125 -366.544677734375 C -758.2896118164062 -362.92919921875 -755.3597412109375 -359.9993286132812 -751.7443237304688 -359.9959411621094 L -708.0548706054688 -359.9959411621094 C -707.1591186523438 -359.9947814941406 -706.2714233398438 -359.8310546875 -705.435546875 -359.5125122070312 C -701.6303100585938 -358.062255859375 -699.72265625 -353.802978515625 -701.1729736328125 -349.9989013671875 L -706.19677734375 -336.8426818847656 C -707.662841796875 -333.0476379394531 -711.3055419921875 -330.5401916503906 -715.3739013671875 -330.5243835449219 L -738.645751953125 -330.5243835449219 C -743.1646728515625 -330.5187072753906 -746.8276977539062 -326.8569641113281 -746.8322143554688 -322.3379211425781 C -746.8310546875 -321.434326171875 -746.09912109375 -320.7012634277344 -745.1956176757812 -320.7001342773438 L -718.2709350585938 -320.7001342773438 C -718.2648315429688 -320.7001342773438 -718.2584838867188 -320.7001342773438 -718.2523803710938 -320.7001342773438 C -716.4323120117188 -320.7001647949219 -714.6272583007812 -320.3602294921875 -712.9307861328125 -319.6983032226562 L -692.5155029296875 -311.7602844238281 C -688.7283325195312 -310.3066711425781 -686.2355346679688 -306.661865234375 -686.2523803710938 -302.604736328125 L -686.2523803710938 -301.0799255371094 C -686.2523803710938 -299.2569580078125 -684.7740478515625 -297.7784729003906 -682.9510498046875 -297.7784729003906 L -663.3579711914062 -297.7784729003906 C -661.5337524414062 -297.7784729003906 -660.0552978515625 -299.2569580078125 -660.0552978515625 -301.0799255371094 L -660.0552978515625 -313.3675842285156 C -660.0540771484375 -316.2127380371094 -660.8775024414062 -318.998046875 -662.42724609375 -321.3846435546875 L -692.3809814453125 -367.5804138183594 C -693.2827758789062 -368.9758911132812 -694.83154296875 -369.8190002441406 -696.4926147460938 -369.8190307617188 M -756.6652221679688 -376.8190307617188 L -696.5025024414062 -376.8190307617188 L -696.4957275390625 -376.8190307617188 C -692.4387817382812 -376.8189086914062 -688.7027587890625 -374.7855529785156 -686.5018310546875 -371.3797607421875 L -656.5538940429688 -325.1929626464844 C -654.26416015625 -321.6668701171875 -653.0535278320312 -317.5753173828125 -653.0552978515625 -313.3645629882812 L -653.0552978515625 -301.0799255371094 C -653.0552978515625 -295.3996887207031 -657.6770629882812 -290.7784729003906 -663.3579711914062 -290.7784729003906 L -682.9510498046875 -290.7784729003906 C -688.6312255859375 -290.7784729003906 -693.2523803710938 -295.3996887207031 -693.2523803710938 -301.0799255371094 L -693.2523803710938 -302.604736328125 C -693.24755859375 -303.7752380371094 -693.9595336914062 -304.8166198730469 -695.0238647460938 -305.2251586914062 L -715.467529296875 -313.1741027832031 C -716.36474609375 -313.5242004394531 -717.299072265625 -313.7001647949219 -718.2523193359375 -313.7001647949219 L -745.1956176757812 -313.7001342773438 C -749.9556274414062 -313.7060241699219 -753.8261108398438 -317.576904296875 -753.8322143554688 -322.3289489746094 C -753.8238525390625 -330.7044067382812 -747.01513671875 -337.5138854980469 -738.6544799804688 -337.5243835449219 L -715.3739013671875 -337.5243835449219 C -714.20654296875 -337.5289611816406 -713.1566772460938 -338.2515258789062 -712.7265014648438 -339.3651428222656 L -707.71240234375 -352.4960327148438 L -751.7443237304688 -352.9959411621094 C -759.2109375 -353.0029602050781 -765.2859497070312 -359.077880859375 -765.2930908203125 -366.5379638671875 L -765.2930908203125 -368.1824035644531 C -765.2930908203125 -372.9386596679688 -761.4226684570312 -376.8130493164062 -756.6652221679688 -376.8190307617188 Z" stroke="none" fill="#fff"/>
    </g>
  </g>
</svg>
