<svg xmlns="http://www.w3.org/2000/svg" xmlns:xlink="http://www.w3.org/1999/xlink" width="156" height="156" viewBox="0 0 156 156">
  <defs>
    <linearGradient id="linear-gradient" x1="0.5" x2="0.5" y2="1" gradientUnits="objectBoundingBox">
      <stop offset="0" stop-color="#3c64b1"/>
      <stop offset="1" stop-color="#537bc9"/>
    </linearGradient>
  </defs>
  <g id="Group_4439" data-name="Group 4439" transform="translate(7530 3437)">
    <circle id="Ellipse_291" data-name="Ellipse 291" cx="78" cy="78" r="78" transform="translate(-7530 -3437)" fill="url(#linear-gradient)"/>
    <g id="Path_336" data-name="Path 336" transform="translate(-7077.529 -3029.43)" fill="none">
      <path d="M-334.37-350.248-356.977-362.9a4.519,4.519,0,0,0-5.65,1.04l-5.02,6.147a3.692,3.692,0,0,1-4.185,1.11l-38.421-14.785c-7.533-2.9-11.713,7.976-4.434,10.777l35.839,13.792a3.692,3.692,0,0,1,2.365,3.445v2.682A3.691,3.691,0,0,1-380.173-335h-41.986c-7.929,0-7.942,11.6,0,11.6h41.986a3.691,3.691,0,0,1,3.691,3.691v1.581a3.691,3.691,0,0,1-3.691,3.691h-6.46a4.22,4.22,0,1,0,0,8.436h6.46a3.691,3.691,0,0,1,3.691,3.691v1.582a3.691,3.691,0,0,1-3.691,3.691,4.22,4.22,0,1,0,0,8.436h16.148a4.58,4.58,0,0,0,1.02-.116l27.452-6.327a4.241,4.241,0,0,0,3.362-4.1V-346.6A4.205,4.205,0,0,0-334.37-350.248Z" stroke="none"/>
      <path d="M -412.7242126464844 -369.87646484375 C -418.6014709472656 -369.87646484375 -421.1225891113281 -361.0890502929688 -414.6873168945312 -358.6126403808594 L -378.8478393554688 -344.8210144042969 C -377.4232482910156 -344.2722778320312 -376.482421875 -342.9036865234375 -376.482421875 -341.3759155273438 L -376.482421875 -338.6934814453125 C -376.482421875 -336.6539611816406 -378.1348876953125 -335.0014343261719 -380.1731872558594 -335.0014343261719 L -422.1592407226562 -335.0014343261719 C -430.0882568359375 -335.0014343261719 -430.1009521484375 -323.402099609375 -422.1592407226562 -323.402099609375 L -380.1731872558594 -323.402099609375 C -378.1348876953125 -323.402099609375 -376.482421875 -321.7495727539062 -376.482421875 -319.7113037109375 L -376.482421875 -318.1300964355469 C -376.482421875 -316.0918579101562 -378.1348876953125 -314.4393310546875 -380.1731872558594 -314.4393310546875 L -386.6329650878906 -314.4393310546875 C -392.4281921386719 -314.4393310546875 -392.4371032714844 -306.003662109375 -386.6329650878906 -306.003662109375 L -380.1731872558594 -306.003662109375 C -378.1348876953125 -306.003662109375 -376.482421875 -304.3511657714844 -376.482421875 -302.3129272460938 L -376.482421875 -300.7304382324219 C -376.482421875 -298.6921997070312 -378.1348876953125 -297.0396728515625 -380.1731872558594 -297.0396728515625 C -385.9684143066406 -297.0396728515625 -385.977294921875 -288.60400390625 -380.1731872558594 -288.60400390625 L -380.1731872558594 -288.6052856445312 L -364.0249938964844 -288.6052856445312 C -363.6812133789062 -288.6052856445312 -363.3400268554688 -288.644775390625 -363.0051879882812 -288.7211608886719 L -335.5530090332031 -295.0485229492188 C -333.6102294921875 -295.4597473144531 -332.2123718261719 -297.1644287109375 -332.1907043457031 -299.1504821777344 L -332.1907043457031 -346.6033630371094 C -332.2047119140625 -348.1221618652344 -333.0386047363281 -349.5162353515625 -334.3703002929688 -350.248291015625 L -356.9769897460938 -362.9017944335938 C -357.6676025390625 -363.2850036621094 -358.4217834472656 -363.4701232910156 -359.1687927246094 -363.4701232910156 C -360.4667358398438 -363.4701232910156 -361.7430725097656 -362.9112854003906 -362.6270751953125 -361.8616333007812 L -367.6470031738281 -355.7150268554688 C -368.3635864257812 -354.8385009765625 -369.4214172363281 -354.3583679199219 -370.5072021484375 -354.3583679199219 C -370.951171875 -354.3583679199219 -371.3998107910156 -354.4386291503906 -371.8317260742188 -354.6048889160156 L -410.2531127929688 -369.3895568847656 C -411.1257629394531 -369.7254028320312 -411.9541625976562 -369.87646484375 -412.7242126464844 -369.87646484375 M -412.7242431640625 -376.87646484375 C -411.0611877441406 -376.87646484375 -409.3839416503906 -376.5555114746094 -407.7390747070312 -375.9225158691406 L -371.5534362792969 -361.9981689453125 L -368.0487060546875 -366.2894897460938 C -365.7872619628906 -368.9759826660156 -362.5752563476562 -370.4700927734375 -359.1688842773438 -370.4700927734375 C -357.2196655273438 -370.4700927734375 -355.2872924804688 -369.9695739746094 -353.5807189941406 -369.0226745605469 L -330.9513549804688 -356.3565368652344 C -327.4534606933594 -354.4338989257812 -325.2283020019531 -350.7114562988281 -325.1910095214844 -346.6678771972656 L -325.1907043457031 -299.1504821777344 C -325.2489624023438 -293.7702331542969 -328.9138488769531 -289.2987365722656 -334.1034851074219 -288.2002563476562 L -361.4330139160156 -281.8999938964844 C -362.2951049804688 -281.7032775878906 -363.162109375 -281.6052856445312 -364.0249938964844 -281.6052856445312 L -380.1731872558594 -281.6052856445312 C -380.1739501953125 -281.6052856445312 -380.1752319335938 -281.6052856445312 -380.1759948730469 -281.6052856445312 C -384.338623046875 -281.6052856445312 -388.0142822265625 -283.665771484375 -390.0080261230469 -287.1178588867188 C -392.0389404296875 -290.6343078613281 -392.0390014648438 -295.0043029785156 -390.0081481933594 -298.5224304199219 C -389.8440551757812 -298.8066711425781 -389.6687927246094 -299.0812072753906 -389.4826049804688 -299.3462219238281 C -394.4246826171875 -300.5652160644531 -397.9827270507812 -304.9057922363281 -397.9827270507812 -310.2190551757812 C -397.9827270507812 -312.4509887695312 -397.35009765625 -314.5909118652344 -396.1755981445312 -316.402099609375 L -422.1592407226562 -316.402099609375 C -425.9639282226562 -316.402099609375 -429.3856201171875 -317.8554992675781 -431.7940368652344 -320.4945983886719 C -433.932861328125 -322.8382568359375 -435.1107482910156 -325.9293212890625 -435.1107482910156 -329.1983032226562 C -435.1107482910156 -336.4972534179688 -429.5428161621094 -342.0014343261719 -422.1592407226562 -342.0014343261719 L -391.0115966796875 -342.0014343261719 L -417.2013244628906 -352.0796813964844 C -423.1620178222656 -354.3734436035156 -426.3969421386719 -360.0592956542969 -425.2509765625 -366.2281799316406 C -424.1047668457031 -372.398193359375 -418.8365173339844 -376.87646484375 -412.7242431640625 -376.87646484375 Z" stroke="none" fill="#fff"/>
    </g>
  </g>
</svg>
