<?xml version="1.0" encoding="utf-8"?>
<!-- Generator: Adobe Illustrator 24.2.3, SVG Export Plug-In . SVG Version: 6.00 Build 0)  -->
<svg version="1.1" id="Layer_1" xmlns="http://www.w3.org/2000/svg" xmlns:xlink="http://www.w3.org/1999/xlink" x="0px" y="0px"
	 viewBox="0 0 35 35" style="enable-background:new 0 0 35 35;" xml:space="preserve">
<style type="text/css">
	.st0{fill:#F4A91A;}
</style>
<path id="smile-solid" class="st0" d="M17.5,8.4c-5.1,0-9.2,4.1-9.2,9.2s4.1,9.2,9.2,9.2s9.2-4.1,9.2-9.2S22.6,8.4,17.5,8.4z
	 M20.5,14.6c0.7,0,1.2,0.5,1.2,1.2s-0.5,1.2-1.2,1.2s-1.2-0.5-1.2-1.2C19.3,15.1,19.8,14.6,20.5,14.6C20.5,14.6,20.5,14.6,20.5,14.6
	z M14.6,14.6c0.7,0,1.2,0.5,1.2,1.2s-0.5,1.2-1.2,1.2c-0.7,0-1.2-0.5-1.2-1.2C13.4,15.1,13.9,14.6,14.6,14.6
	C14.6,14.6,14.6,14.6,14.6,14.6z M21.8,20.9c-2,2.3-5.4,2.7-7.8,0.7c-0.3-0.2-0.5-0.5-0.7-0.7c-0.5-0.6,0.4-1.4,0.9-0.8
	c1.5,1.8,4.3,2.1,6.1,0.6c0.2-0.2,0.4-0.4,0.6-0.6C21.4,19.5,22.3,20.3,21.8,20.9z"/>
</svg>
